<svg width="200" height="187" viewBox="0 0 200 187" fill="none" xmlns="http://www.w3.org/2000/svg">
<g filter="url(#filter0_d_388_9193)">
<path d="M185.059 3.10547H15.1998C11.0913 3.10547 7.76074 6.78665 7.76074 11.3276V167.548C7.76074 172.089 11.0913 175.77 15.1998 175.77H185.059C189.168 175.77 192.498 172.089 192.498 167.548V11.3276C192.498 6.78665 189.168 3.10547 185.059 3.10547Z" fill="white"/>
<g opacity="0.7">
<mask id="mask0_388_9193" style="mask-type:luminance" maskUnits="userSpaceOnUse" x="17" y="14" width="167" height="40">
<path d="M181.581 14.0664H18.6803C17.7857 14.0664 17.0605 14.8679 17.0605 15.8567V52.0165C17.0605 53.0052 17.7857 53.8067 18.6803 53.8067H181.581C182.475 53.8067 183.201 53.0052 183.201 52.0165V15.8567C183.201 14.8679 182.475 14.0664 181.581 14.0664Z" fill="white"/>
</mask>
<g mask="url(#mask0_388_9193)">
<path d="M181.581 14.0664H18.6803C17.7857 14.0664 17.0605 14.8679 17.0605 15.8567V52.0165C17.0605 53.0052 17.7857 53.8067 18.6803 53.8067H181.581C182.475 53.8067 183.201 53.0052 183.201 52.0165V15.8567C183.201 14.8679 182.475 14.0664 181.581 14.0664Z" fill="#F8FAFF"/>
<path d="M181.581 14.0664H18.6803C17.7857 14.0664 17.0605 14.8679 17.0605 15.8567V52.0165C17.0605 53.0052 17.7857 53.8067 18.6803 53.8067H181.581C182.475 53.8067 183.201 53.0052 183.201 52.0165V15.8567C183.201 14.8679 182.475 14.0664 181.581 14.0664Z" fill="url(#paint0_radial_388_9193)"/>
<path d="M181.581 14.0664H18.6803C17.7857 14.0664 17.0605 14.8679 17.0605 15.8567V52.0165C17.0605 53.0052 17.7857 53.8067 18.6803 53.8067H181.581C182.475 53.8067 183.201 53.0052 183.201 52.0165V15.8567C183.201 14.8679 182.475 14.0664 181.581 14.0664Z" fill="url(#paint1_radial_388_9193)"/>
</g>
</g>
<path d="M115.845 58.2134C115.845 48.9376 109.042 41.418 100.649 41.418C92.2566 41.418 85.4531 48.9376 85.4531 58.2134V60.3125C85.4531 69.5884 92.2566 77.108 100.649 77.108C109.042 77.108 115.845 69.5884 115.845 60.3125V58.2134Z" fill="#F3F6FB" stroke="white" stroke-width="1.70153"/>
<path d="M100.901 31.8867H100.901C90.5567 31.8867 82.1709 41.1552 82.1709 52.5885V52.5887C82.1709 64.022 90.5567 73.2905 100.901 73.2905H100.901C111.246 73.2905 119.631 64.022 119.631 52.5887V52.5885C119.631 41.1552 111.246 31.8867 100.901 31.8867Z" fill="#202634" stroke="white" stroke-width="1.70153"/>
<path d="M73.531 93.0679C72.7262 93.0679 72.093 93.3657 71.6311 93.9611C71.1693 94.5566 70.9383 95.3726 70.9383 96.4089C70.9383 97.4375 71.1519 98.2535 71.5787 98.8568C72.0125 99.4523 72.6597 99.7499 73.5204 99.7499C73.8493 99.7499 74.1607 99.7191 74.4546 99.6572C74.7485 99.5953 75.0353 99.5179 75.3152 99.4251V100.33C75.0353 100.446 74.745 100.531 74.4441 100.585C74.1503 100.639 73.7968 100.666 73.3841 100.666C72.6213 100.666 71.9844 100.492 71.4737 100.145C70.9629 99.7964 70.578 99.3015 70.3192 98.6595C70.0672 98.0176 69.9412 97.2635 69.9412 96.3973C69.9412 95.562 70.0777 94.8274 70.3506 94.1931C70.6305 93.5512 71.0399 93.0523 71.5787 92.6966C72.1174 92.3331 72.7717 92.1514 73.5415 92.1514C74.3321 92.1514 75.0214 92.3138 75.6091 92.6386L75.2313 93.5203C75.0004 93.4043 74.7415 93.2999 74.4546 93.2071C74.1747 93.1142 73.8667 93.0679 73.531 93.0679ZM78.9976 94.2164C79.4805 94.2164 79.8933 94.3323 80.2362 94.5643C80.5861 94.7964 80.852 95.125 81.0339 95.5505C81.2228 95.968 81.3174 96.4592 81.3174 97.0238V97.6386H77.4652C77.4792 98.3424 77.6402 98.8799 77.9481 99.2512C78.263 99.6147 78.7003 99.7964 79.2601 99.7964C79.6169 99.7964 79.9319 99.7617 80.2048 99.6921C80.4847 99.6147 80.7716 99.5063 81.0654 99.3671V100.26C80.7786 100.4 80.4952 100.5 80.2153 100.562C79.9354 100.632 79.603 100.666 79.218 100.666C78.6863 100.666 78.214 100.547 77.8011 100.307C77.3952 100.067 77.0769 99.7113 76.8459 99.2396C76.622 98.7601 76.5102 98.1761 76.5102 97.4878C76.5102 96.8072 76.6116 96.2234 76.8145 95.736C77.0244 95.2488 77.3148 94.8737 77.6856 94.6108C78.0636 94.3478 78.5009 94.2164 78.9976 94.2164ZM78.9872 95.0515C78.5464 95.0515 78.1965 95.2102 77.9376 95.5273C77.6856 95.8367 77.5352 96.2697 77.4863 96.8265H80.3517C80.3448 96.3007 80.2327 95.8753 80.0158 95.5505C79.7989 95.218 79.456 95.0515 78.9872 95.0515ZM85.3735 94.2164C85.4786 94.2164 85.5904 94.2241 85.7094 94.2396C85.8354 94.2473 85.944 94.2627 86.0349 94.286L85.9194 95.2257C85.8284 95.2024 85.7269 95.1831 85.615 95.1676C85.51 95.1522 85.4086 95.1445 85.3105 95.1445C85.0237 95.1445 84.7543 95.2334 84.5024 95.4112C84.2505 95.5813 84.0475 95.8249 83.8936 96.1422C83.7467 96.4515 83.6732 96.8149 83.6732 97.2326V100.55H82.7496V94.3323H83.5053L83.6102 95.4693H83.6523C83.8341 95.1289 84.0686 94.8351 84.3555 94.5875C84.6424 94.3401 84.9818 94.2164 85.3735 94.2164ZM88.9642 99.8311C89.1041 99.8311 89.2476 99.8196 89.3945 99.7964C89.5414 99.7655 89.6604 99.7345 89.7513 99.7036V100.481C89.6534 100.535 89.5135 100.578 89.3315 100.609C89.1496 100.647 88.9746 100.666 88.8068 100.666C88.5129 100.666 88.24 100.612 87.988 100.504C87.7432 100.388 87.5437 100.191 87.3897 99.9125C87.2358 99.634 87.1588 99.2435 87.1588 98.7407V95.1212H86.3612V94.634L87.1693 94.228L87.5368 92.9055H88.0824V94.3323H89.7094V95.1212H88.0824V98.7175C88.0824 99.0965 88.163 99.3788 88.3239 99.5644C88.4918 99.7422 88.7052 99.8311 88.9642 99.8311ZM91.3502 92.0006C91.4902 92.0006 91.6127 92.0548 91.7176 92.163C91.8296 92.2635 91.8856 92.4259 91.8856 92.6502C91.8856 92.8667 91.8296 93.0291 91.7176 93.1375C91.6127 93.2457 91.4902 93.2999 91.3502 93.2999C91.1963 93.2999 91.0669 93.2457 90.9618 93.1375C90.8569 93.0291 90.8044 92.8667 90.8044 92.6502C90.8044 92.4259 90.8569 92.2635 90.9618 92.163C91.0669 92.0548 91.1963 92.0006 91.3502 92.0006ZM91.8015 94.3323V100.55H90.8779V94.3323H91.8015ZM96.1765 95.1212H94.7595V100.55H93.8358V95.1212H92.8492V94.6455L93.8358 94.2976V93.9379C93.8358 93.1337 93.9967 92.5574 94.3187 92.2094C94.6406 91.8536 95.0884 91.6758 95.6621 91.6758C95.886 91.6758 96.089 91.6989 96.2709 91.7454C96.4599 91.784 96.6208 91.8305 96.7538 91.8845L96.5123 92.6851C96.4004 92.6463 96.271 92.6077 96.124 92.569C95.9771 92.5304 95.8267 92.5109 95.6726 92.5109C95.3648 92.5109 95.1339 92.627 94.9798 92.859C94.8329 93.0833 94.7595 93.4392 94.7595 93.9263V94.3323H96.1765V95.1212ZM97.6669 92.0006C97.8069 92.0006 97.9294 92.0548 98.0342 92.163C98.1463 92.2635 98.2023 92.4259 98.2023 92.6502C98.2023 92.8667 98.1463 93.0291 98.0342 93.1375C97.9294 93.2457 97.8069 93.2999 97.6669 93.2999C97.513 93.2999 97.3835 93.2457 97.2785 93.1375C97.1736 93.0291 97.1211 92.8667 97.1211 92.6502C97.1211 92.4259 97.1736 92.2635 97.2785 92.163C97.3835 92.0548 97.513 92.0006 97.6669 92.0006ZM98.1183 94.3323V100.55H97.1946V94.3323H98.1183ZM102.155 100.666C101.658 100.666 101.213 100.554 100.822 100.33C100.437 100.106 100.132 99.7578 99.9086 99.2859C99.6916 98.8141 99.5831 98.2109 99.5831 97.4762C99.5831 96.7106 99.6986 96.088 99.9295 95.6085C100.16 95.1289 100.472 94.7771 100.864 94.5528C101.262 94.3285 101.714 94.2164 102.218 94.2164C102.505 94.2164 102.781 94.2511 103.047 94.3208C103.313 94.3827 103.53 94.46 103.698 94.5528L103.414 95.3996C103.246 95.33 103.05 95.2643 102.826 95.2024C102.602 95.1406 102.393 95.1096 102.197 95.1096C101.091 95.1096 100.538 95.8946 100.538 97.4647C100.538 98.2149 100.671 98.791 100.937 99.1931C101.21 99.5875 101.612 99.7848 102.144 99.7848C102.452 99.7848 102.721 99.7499 102.952 99.6805C103.19 99.6109 103.407 99.5258 103.603 99.4251V100.33C103.414 100.438 103.204 100.519 102.973 100.574C102.749 100.636 102.477 100.666 102.155 100.666ZM107.072 94.228C107.758 94.228 108.265 94.3942 108.594 94.7267C108.923 95.0594 109.087 95.5891 109.087 96.3161V100.55H108.415L108.237 99.6687H108.195C107.95 100.009 107.691 100.26 107.418 100.423C107.152 100.585 106.781 100.666 106.306 100.666C105.795 100.666 105.371 100.519 105.036 100.226C104.7 99.9241 104.532 99.4562 104.532 98.8219C104.532 98.2032 104.752 97.7275 105.193 97.395C105.634 97.0546 106.313 96.8691 107.229 96.8382L108.184 96.8033V96.4321C108.184 95.914 108.083 95.5543 107.88 95.3532C107.677 95.1522 107.39 95.0515 107.019 95.0515C106.725 95.0515 106.445 95.1019 106.18 95.2024C105.914 95.2953 105.665 95.4035 105.434 95.5273L105.151 94.7616C105.396 94.6147 105.686 94.4909 106.022 94.3904C106.358 94.282 106.708 94.228 107.072 94.228ZM107.345 97.5458C106.645 97.5767 106.159 97.7005 105.886 97.9171C105.62 98.1335 105.487 98.439 105.487 98.8336C105.487 99.1816 105.581 99.4367 105.77 99.5991C105.966 99.7617 106.215 99.8429 106.515 99.8429C106.991 99.8429 107.387 99.6998 107.702 99.4136C108.016 99.1196 108.174 98.671 108.174 98.0679V97.511L107.345 97.5458ZM112.703 99.8311C112.843 99.8311 112.987 99.8196 113.134 99.7964C113.281 99.7655 113.4 99.7345 113.491 99.7036V100.481C113.393 100.535 113.253 100.578 113.071 100.609C112.889 100.647 112.714 100.666 112.546 100.666C112.252 100.666 111.979 100.612 111.727 100.504C111.482 100.388 111.283 100.191 111.129 99.9125C110.975 99.634 110.898 99.2435 110.898 98.7407V95.1212H110.1V94.634L110.909 94.228L111.276 92.9055H111.822V94.3323H113.449V95.1212H111.822V98.7175C111.822 99.0965 111.902 99.3788 112.063 99.5644C112.231 99.7422 112.445 99.8311 112.703 99.8311ZM116.79 94.2164C117.273 94.2164 117.686 94.3323 118.028 94.5643C118.378 94.7964 118.644 95.125 118.826 95.5505C119.015 95.968 119.11 96.4592 119.11 97.0238V97.6386H115.258C115.271 98.3424 115.432 98.8799 115.74 99.2512C116.055 99.6147 116.492 99.7964 117.052 99.7964C117.409 99.7964 117.724 99.7617 117.997 99.6921C118.277 99.6147 118.564 99.5063 118.858 99.3671V100.26C118.571 100.4 118.287 100.5 118.007 100.562C117.728 100.632 117.395 100.666 117.01 100.666C116.478 100.666 116.006 100.547 115.593 100.307C115.188 100.067 114.869 99.7113 114.638 99.2396C114.414 98.7601 114.302 98.1761 114.302 97.4878C114.302 96.8072 114.404 96.2234 114.607 95.736C114.817 95.2488 115.107 94.8737 115.478 94.6108C115.856 94.3478 116.293 94.2164 116.79 94.2164ZM116.779 95.0515C116.339 95.0515 115.989 95.2102 115.73 95.5273C115.478 95.8367 115.327 96.2697 115.278 96.8265H118.144C118.137 96.3007 118.025 95.8753 117.808 95.5505C117.591 95.218 117.248 95.0515 116.779 95.0515ZM128.16 97.4298C128.16 98.4585 127.922 99.255 127.446 99.8196C126.977 100.384 126.34 100.666 125.535 100.666C125.039 100.666 124.594 100.543 124.202 100.295C123.818 100.04 123.513 99.6726 123.289 99.1931C123.065 98.7059 122.953 98.1181 122.953 97.4298C122.953 96.4012 123.188 95.6085 123.657 95.0515C124.126 94.4947 124.762 94.2164 125.567 94.2164C126.078 94.2164 126.526 94.3439 126.911 94.5992C127.302 94.8467 127.607 95.2102 127.824 95.6897C128.048 96.1615 128.16 96.7414 128.16 97.4298ZM123.909 97.4298C123.909 98.1646 124.038 98.7484 124.297 99.1816C124.563 99.607 124.983 99.8196 125.556 99.8196C126.123 99.8196 126.54 99.607 126.805 99.1816C127.071 98.7484 127.204 98.1646 127.204 97.4298C127.204 96.6951 127.071 96.1188 126.805 95.7013C126.54 95.2836 126.12 95.0749 125.546 95.0749C124.972 95.0749 124.556 95.2836 124.297 95.7013C124.038 96.1188 123.909 96.6951 123.909 97.4298ZM132.216 95.1212H130.799V100.55H129.875V95.1212H128.889V94.6455L129.875 94.2976V93.9379C129.875 93.1337 130.036 92.5574 130.358 92.2094C130.68 91.8536 131.128 91.6758 131.702 91.6758C131.925 91.6758 132.128 91.6989 132.31 91.7454C132.499 91.784 132.66 91.8305 132.793 91.8845L132.552 92.6851C132.44 92.6463 132.31 92.6077 132.163 92.569C132.017 92.5304 131.866 92.5109 131.712 92.5109C131.404 92.5109 131.173 92.627 131.019 92.859C130.872 93.0833 130.799 93.4392 130.799 93.9263V94.3323H132.216V95.1212ZM67.8868 116.78C67.1772 116.78 66.5678 116.634 66.0584 116.343C65.5489 116.041 65.1577 115.579 64.885 114.955C64.612 114.332 64.4756 113.533 64.4756 112.557C64.4756 111.552 64.6256 110.733 64.9258 110.099C65.2351 109.466 65.6582 108.998 66.1948 108.697C66.7406 108.395 67.3637 108.244 68.0642 108.244C68.5189 108.244 68.942 108.299 69.3331 108.41C69.7243 108.521 70.0518 108.651 70.3155 108.802L69.6743 110.491C69.4014 110.361 69.1512 110.255 68.9238 110.174C68.7054 110.094 68.4644 110.054 68.2006 110.054C67.8822 110.054 67.6093 110.149 67.3819 110.34C67.1635 110.521 66.9954 110.798 66.8771 111.17C66.7588 111.532 66.6996 111.989 66.6996 112.542C66.6996 113.085 66.7588 113.538 66.8771 113.9C67.0044 114.251 67.1772 114.518 67.3956 114.699C67.6229 114.87 67.8913 114.955 68.2006 114.955C68.5463 114.955 68.8737 114.895 69.183 114.774C69.5015 114.644 69.8016 114.468 70.0837 114.246V116.162C69.7834 116.383 69.4604 116.539 69.1148 116.629C68.7783 116.73 68.3689 116.78 67.8868 116.78ZM78.1631 112.497C78.1631 113.181 78.0812 113.789 77.9174 114.322C77.7627 114.855 77.5353 115.307 77.2352 115.679C76.935 116.041 76.5666 116.318 76.1299 116.509C75.7023 116.69 75.2202 116.78 74.6836 116.78C74.1833 116.78 73.7194 116.69 73.2918 116.509C72.8643 116.318 72.4958 116.041 72.1865 115.679C71.8864 115.307 71.6498 114.855 71.477 114.322C71.3132 113.789 71.2315 113.181 71.2315 112.497C71.2315 111.582 71.3724 110.813 71.6544 110.19C71.9364 109.556 72.3366 109.074 72.8551 108.742C73.3736 108.41 73.9968 108.244 74.7245 108.244C75.3977 108.244 75.9889 108.41 76.4984 108.742C77.0169 109.074 77.4217 109.556 77.7128 110.19C78.0129 110.813 78.1631 111.582 78.1631 112.497ZM73.4555 112.497C73.4555 113.04 73.4965 113.498 73.5783 113.869C73.6693 114.231 73.8058 114.508 73.9876 114.699C74.1786 114.88 74.4197 114.97 74.7108 114.97C75.011 114.97 75.2476 114.88 75.4204 114.699C75.6023 114.508 75.7342 114.231 75.8161 113.869C75.898 113.498 75.9389 113.04 75.9389 112.497C75.9389 111.954 75.898 111.502 75.8161 111.14C75.7342 110.778 75.5977 110.506 75.4067 110.325C75.2248 110.144 74.9884 110.054 74.6973 110.054C74.2515 110.054 73.9331 110.26 73.7421 110.672C73.5511 111.074 73.4555 111.683 73.4555 112.497ZM88.0808 108.244C88.8904 108.244 89.4998 108.485 89.9092 108.968C90.3277 109.441 90.5369 110.205 90.5369 111.26V116.629H88.3673V111.818C88.3673 111.225 88.2855 110.783 88.1217 110.491C87.9671 110.19 87.7305 110.039 87.4122 110.039C86.9573 110.039 86.639 110.25 86.457 110.672C86.2751 111.095 86.1841 111.703 86.1841 112.497V116.629H84.001V111.818C84.001 111.426 83.9646 111.1 83.8917 110.838C83.8282 110.577 83.7281 110.381 83.5916 110.25C83.4552 110.109 83.2732 110.039 83.0458 110.039C82.7365 110.039 82.491 110.144 82.309 110.356C82.1361 110.567 82.0134 110.873 81.9406 111.275C81.8677 111.678 81.8314 112.17 81.8314 112.753V116.629H79.6482V108.395H81.2992L81.613 109.451H81.6949C81.8314 109.169 81.9997 108.943 82.1999 108.772C82.409 108.591 82.6456 108.46 82.9093 108.38C83.1822 108.289 83.4733 108.244 83.7826 108.244C84.2921 108.244 84.7196 108.345 85.0653 108.546C85.4199 108.737 85.6975 109.038 85.8975 109.451H86.0205C86.2387 109.028 86.5298 108.722 86.8936 108.531C87.2666 108.34 87.6623 108.244 88.0808 108.244ZM96.4679 108.244C97.2501 108.244 97.8734 108.606 98.3373 109.33C98.8102 110.044 99.0468 111.1 99.0468 112.497C99.0468 113.432 98.933 114.221 98.7056 114.865C98.4782 115.498 98.1643 115.976 97.7641 116.297C97.3639 116.619 96.9045 116.78 96.386 116.78C96.0586 116.78 95.7765 116.73 95.5399 116.629C95.3035 116.529 95.1034 116.398 94.9396 116.237C94.7849 116.076 94.6485 115.905 94.5303 115.724H94.4348C94.4621 115.915 94.4848 116.117 94.503 116.328C94.5212 116.529 94.5303 116.73 94.5303 116.931V120.249H92.347V108.395H94.121L94.4348 109.466H94.5303C94.6485 109.244 94.7941 109.044 94.9669 108.862C95.1397 108.671 95.3489 108.521 95.5946 108.41C95.8402 108.299 96.1313 108.244 96.4679 108.244ZM95.6901 110.039C95.4081 110.039 95.1806 110.119 95.0078 110.28C94.835 110.441 94.7122 110.687 94.6394 111.019C94.5667 111.341 94.5303 111.748 94.5303 112.241V112.482C94.5303 113.015 94.5667 113.467 94.6394 113.839C94.7122 114.201 94.835 114.478 95.0078 114.669C95.1806 114.86 95.4172 114.955 95.7174 114.955C95.963 114.955 96.1677 114.86 96.3315 114.669C96.4951 114.478 96.6179 114.196 96.6998 113.824C96.7817 113.452 96.8226 113 96.8226 112.467C96.8226 111.663 96.7272 111.059 96.5361 110.657C96.3542 110.245 96.0721 110.039 95.6901 110.039ZM102.712 116.629H100.529V105.168H102.712V116.629ZM107.609 108.244C108.273 108.244 108.846 108.39 109.328 108.681C109.81 108.973 110.183 109.395 110.447 109.948C110.711 110.501 110.843 111.18 110.843 111.984V113.07H106.408C106.427 113.703 106.572 114.201 106.845 114.563C107.127 114.925 107.527 115.106 108.046 115.106C108.5 115.106 108.91 115.056 109.274 114.955C109.647 114.845 110.029 114.679 110.42 114.458V116.192C110.083 116.393 109.715 116.539 109.315 116.629C108.924 116.73 108.437 116.78 107.855 116.78C107.145 116.78 106.513 116.629 105.958 116.328C105.412 116.016 104.98 115.549 104.662 114.925C104.353 114.302 104.198 113.518 104.198 112.572C104.198 111.607 104.339 110.808 104.621 110.174C104.912 109.531 105.312 109.048 105.822 108.727C106.34 108.405 106.936 108.244 107.609 108.244ZM107.65 109.843C107.323 109.843 107.05 109.983 106.831 110.265C106.613 110.547 106.486 110.984 106.449 111.577H108.837C108.837 111.245 108.792 110.949 108.701 110.687C108.61 110.426 108.478 110.22 108.305 110.069C108.132 109.918 107.914 109.843 107.65 109.843ZM115.528 114.985C115.746 114.985 115.946 114.96 116.128 114.91C116.319 114.86 116.515 114.799 116.715 114.729V116.403C116.488 116.504 116.219 116.589 115.91 116.659C115.61 116.74 115.255 116.78 114.846 116.78C114.409 116.78 114.018 116.7 113.672 116.539C113.336 116.378 113.072 116.101 112.881 115.709C112.69 115.307 112.594 114.754 112.594 114.05V110.084H111.707V109.134L112.772 108.38L113.372 106.646H114.778V108.395H116.633V110.084H114.778V114.05C114.778 114.362 114.846 114.598 114.982 114.759C115.119 114.91 115.301 114.985 115.528 114.985ZM120.234 108.395V116.629H118.051V108.395H120.234ZM119.157 105.168C119.475 105.168 119.748 105.248 119.975 105.409C120.203 105.56 120.316 105.846 120.316 106.268C120.316 106.681 120.203 106.967 119.975 107.128C119.748 107.289 119.475 107.369 119.157 107.369C118.829 107.369 118.552 107.289 118.324 107.128C118.097 106.967 117.983 106.681 117.983 106.268C117.983 105.846 118.097 105.56 118.324 105.409C118.552 105.248 118.829 105.168 119.157 105.168ZM128.652 112.497C128.652 113.181 128.57 113.789 128.406 114.322C128.252 114.855 128.024 115.307 127.724 115.679C127.424 116.041 127.056 116.318 126.619 116.509C126.191 116.69 125.709 116.78 125.173 116.78C124.672 116.78 124.208 116.69 123.781 116.509C123.353 116.318 122.985 116.041 122.676 115.679C122.375 115.307 122.139 114.855 121.966 114.322C121.802 113.789 121.72 113.181 121.72 112.497C121.72 111.582 121.861 110.813 122.143 110.19C122.425 109.556 122.826 109.074 123.344 108.742C123.863 108.41 124.486 108.244 125.214 108.244C125.887 108.244 126.478 108.41 126.987 108.742C127.506 109.074 127.911 109.556 128.202 110.19C128.502 110.813 128.652 111.582 128.652 112.497ZM123.945 112.497C123.945 113.04 123.985 113.498 124.067 113.869C124.158 114.231 124.295 114.508 124.477 114.699C124.668 114.88 124.909 114.97 125.2 114.97C125.5 114.97 125.737 114.88 125.909 114.699C126.091 114.508 126.223 114.231 126.305 113.869C126.387 113.498 126.428 113.04 126.428 112.497C126.428 111.954 126.387 111.502 126.305 111.14C126.223 110.778 126.087 110.506 125.896 110.325C125.714 110.144 125.477 110.054 125.186 110.054C124.74 110.054 124.422 110.26 124.231 110.672C124.04 111.074 123.945 111.683 123.945 112.497ZM134.34 108.244C135.086 108.244 135.686 108.485 136.141 108.968C136.605 109.441 136.837 110.205 136.837 111.26V116.629H134.654V111.818C134.654 111.225 134.572 110.783 134.408 110.491C134.254 110.19 134.003 110.039 133.658 110.039C133.13 110.039 132.775 110.275 132.593 110.748C132.411 111.21 132.32 111.879 132.32 112.753V116.629H130.137V108.395H131.788L132.088 109.451H132.184C132.339 109.169 132.521 108.943 132.73 108.772C132.948 108.591 133.194 108.46 133.467 108.38C133.74 108.289 134.031 108.244 134.34 108.244Z" fill="#1D1A27"/>
<path d="M134.54 128.891H67.0828C65.6736 128.891 64.5312 130.153 64.5312 131.711C64.5312 133.268 65.6736 134.531 67.0828 134.531H134.54C135.949 134.531 137.091 133.268 137.091 131.711C137.091 130.153 135.949 128.891 134.54 128.891Z" fill="#EAEDF2"/>
<path d="M125.688 139.691H75.9363C74.5271 139.691 73.3848 140.954 73.3848 142.511C73.3848 144.069 74.5271 145.332 75.9363 145.332H125.688C127.097 145.332 128.239 144.069 128.239 142.511C128.239 140.954 127.097 139.691 125.688 139.691Z" fill="#EAEDF2"/>
<path d="M99.4219 42.5314C99.998 41.151 101.773 41.151 102.349 42.5314L104.041 46.5847C104.275 47.1473 104.758 47.5346 105.314 47.6076L109.325 48.1332C110.69 48.3122 111.239 50.178 110.229 51.2101L107.264 54.2408C106.853 54.6614 106.668 55.2882 106.778 55.8959L107.565 60.2741C107.833 61.765 106.397 62.9182 105.197 62.1757L101.673 59.9954C101.184 59.6928 100.587 59.6928 100.098 59.9954L96.5744 62.1757C95.3742 62.9182 93.9383 61.765 94.2063 60.2741L94.9934 55.8959C95.1027 55.2882 94.9183 54.6614 94.5068 54.2408L91.5419 51.2101C90.5321 50.178 91.0806 48.3122 92.4464 48.1332L96.4567 47.6076C97.0134 47.5346 97.4958 47.1473 97.7306 46.5847L99.4219 42.5314Z" stroke="#F8F8FF" stroke-width="1.64443" stroke-linejoin="round"/>
</g>
<defs>
<filter id="filter0_d_388_9193" x="0.908968" y="0.364765" width="198.441" height="186.368" filterUnits="userSpaceOnUse" color-interpolation-filters="sRGB">
<feFlood flood-opacity="0" result="BackgroundImageFix"/>
<feColorMatrix in="SourceAlpha" type="matrix" values="0 0 0 0 0 0 0 0 0 0 0 0 0 0 0 0 0 0 127 0" result="hardAlpha"/>
<feOffset dy="4.11107"/>
<feGaussianBlur stdDeviation="3.42589"/>
<feComposite in2="hardAlpha" operator="out"/>
<feColorMatrix type="matrix" values="0 0 0 0 0.175444 0 0 0 0 0.107708 0 0 0 0 0.5875 0 0 0 0.15 0"/>
<feBlend mode="normal" in2="BackgroundImageFix" result="effect1_dropShadow_388_9193"/>
<feBlend mode="normal" in="SourceGraphic" in2="effect1_dropShadow_388_9193" result="shape"/>
</filter>
<radialGradient id="paint0_radial_388_9193" cx="0" cy="0" r="1" gradientUnits="userSpaceOnUse" gradientTransform="translate(194.979 -44.1738) rotate(111.099) scale(149.821 137.866)">
<stop stop-color="#00BAFF"/>
<stop offset="1" stop-color="#E3E0FF" stop-opacity="0"/>
</radialGradient>
<radialGradient id="paint1_radial_388_9193" cx="0" cy="0" r="1" gradientUnits="userSpaceOnUse" gradientTransform="translate(17.6804 125.065) rotate(-51.1685) scale(127.537 90.7826)">
<stop stop-color="#FDD600"/>
<stop offset="1" stop-color="#FFD800" stop-opacity="0"/>
</radialGradient>
</defs>
</svg>
