<svg width="101" height="71" viewBox="0 0 101 71" fill="none" xmlns="http://www.w3.org/2000/svg">
<path d="M100.683 64.6783L97.0065 69.13L94.9895 63.7203L100.683 64.6783ZM1.67521 0.588533C1.77954 1.07989 1.88611 1.56896 1.99489 2.0557L1.01897 2.27381C0.909409 1.78358 0.802088 1.29106 0.697017 0.796241L1.67521 0.588533ZM2.67405 4.9484C2.91357 5.92097 3.16214 6.88385 3.41965 7.83698L2.45427 8.09781C2.19479 7.13739 1.94434 6.16727 1.70307 5.18752L2.67405 4.9484ZM4.22457 10.6863C4.50861 11.649 4.80201 12.6013 5.10465 13.5429L4.15261 13.8489C3.84749 12.8995 3.55173 11.9396 3.26545 10.9693L4.22457 10.6863ZM6.04812 16.3591C6.3771 17.3018 6.7156 18.2334 7.0635 19.1537L6.1281 19.5073C5.77715 18.5789 5.43572 17.6393 5.10395 16.6885L6.04812 16.3591ZM8.15383 21.926C8.53042 22.8471 8.91674 23.7561 9.31262 24.6529L8.39778 25.0567C7.99815 24.1514 7.60824 23.2339 7.22821 22.3045L8.15383 21.926ZM10.5551 27.3622C10.9844 28.2637 11.4238 29.152 11.8729 30.0271L10.9833 30.4838C10.5295 29.5997 10.0858 28.7025 9.65226 27.7922L10.5551 27.3622ZM13.2651 32.64C13.7494 33.5161 14.2441 34.378 14.749 35.2255L13.8898 35.7373C13.3795 34.8805 12.8794 34.0092 12.3899 33.1238L13.2651 32.64ZM16.3111 37.7521C16.8481 38.5889 17.3954 39.4104 17.9529 40.2167L17.1303 40.7854C16.5663 39.9696 16.0126 39.1385 15.4695 38.2922L16.3111 37.7521ZM19.6886 42.6336C20.2846 43.4327 20.8912 44.2152 21.5081 44.9812L20.7293 45.6085C20.1045 44.8327 19.4904 44.0404 18.887 43.2315L19.6886 42.6336ZM23.4105 47.2531C24.0639 48.0035 24.7279 48.7362 25.4023 49.4512L24.6748 50.1374C23.9913 49.4126 23.3184 48.6701 22.6564 47.9098L23.4105 47.2531ZM27.4841 51.5699C28.1951 52.2642 28.9167 52.9397 29.6486 53.5963L28.9809 54.3407C28.2384 53.6746 27.5065 52.9894 26.7855 52.2854L27.4841 51.5699ZM31.8954 55.5256C32.6626 56.1559 33.4403 56.7663 34.2282 57.3566L33.6286 58.1569C32.8287 57.5576 32.0393 56.938 31.2606 56.2984L31.8954 55.5256ZM36.6416 59.0803C37.4609 59.6375 38.2903 60.1739 39.1296 60.6892L38.6064 61.5414C37.7538 61.0179 36.9113 60.4731 36.0792 59.9072L36.6416 59.0803ZM41.6894 62.1787C42.556 62.6558 43.4324 63.1113 44.3183 63.545L43.8786 64.4431C42.9783 64.0024 42.0877 63.5395 41.2072 63.0548L41.6894 62.1787ZM47.0103 64.7829C47.9171 65.1736 48.8331 65.5421 49.7581 65.8883L49.4076 66.8249C48.4674 66.473 47.5363 66.0984 46.6146 65.7013L47.0103 64.7829ZM52.5568 66.8587C53.4965 67.1591 54.4448 67.4371 55.4014 67.6925L55.1435 68.6586C54.1713 68.3991 53.2074 68.1166 52.2523 67.8112L52.5568 66.8587ZM58.2798 68.387C59.2415 68.5947 60.2111 68.7801 61.1883 68.943L61.0239 69.9294C60.0311 69.7639 59.0459 69.5755 58.0687 69.3644L58.2798 68.387ZM64.1221 69.3616C65.0999 69.4778 66.0848 69.572 67.0765 69.6439L67.0042 70.6413C65.9973 70.5683 64.9971 70.4727 64.004 70.3546L64.1221 69.3616ZM70.0343 69.7916C71.0153 69.8186 72.0026 69.8242 72.9959 69.8082L73.012 70.8081C72.0042 70.8243 71.0024 70.8186 70.0068 70.7912L70.0343 69.7916ZM75.961 69.6971C76.9435 69.6394 77.9315 69.561 78.9249 69.4615L79.0245 70.4565C78.0176 70.5573 77.0159 70.6369 76.0196 70.6954L75.961 69.6971ZM81.8622 69.1079C82.8339 68.9715 83.8103 68.8152 84.7913 68.6388L84.9682 69.6231C83.9748 69.8017 82.9857 69.96 82.0012 70.0982L81.8622 69.1079ZM87.7113 68.0574C88.6679 67.8485 89.6285 67.6208 90.593 67.374L90.8409 68.3428C89.8651 68.5925 88.8929 68.823 87.9247 69.0344L87.7113 68.0574ZM93.4543 66.5892C94.4002 66.3125 95.3495 66.0175 96.3021 65.7043L96.6145 66.6542C95.6516 66.9709 94.6917 67.2691 93.7352 67.549L93.4543 66.5892Z" fill="#B6B9FA"/>
</svg>
