<svg width="280" height="125" viewBox="0 0 280 125" fill="none" xmlns="http://www.w3.org/2000/svg">
<g filter="url(#filter0_d_388_9021)">
<mask id="mask0_388_9021" style="mask-type:luminance" maskUnits="userSpaceOnUse" x="24" y="22" width="75" height="76">
<path d="M61.7922 22.1055H61.2078C40.6585 22.1055 24 38.764 24 59.3133V59.8977C24 80.447 40.6585 97.1055 61.2078 97.1055H61.7922C82.3415 97.1055 99 80.447 99 59.8977V59.3133C99 38.764 82.3415 22.1055 61.7922 22.1055Z" fill="white"/>
</mask>
<g mask="url(#mask0_388_9021)">
<path d="M61.7912 22.1055H61.2068C40.6575 22.1055 23.999 38.764 23.999 59.3133V59.8977C23.999 80.447 40.6575 97.1055 61.2068 97.1055H61.7912C82.3405 97.1055 98.999 80.447 98.999 59.8977V59.3133C98.999 38.764 82.3405 22.1055 61.7912 22.1055Z" fill="#FFFBDC"/>
<path fill-rule="evenodd" clip-rule="evenodd" d="M7.59507 49.6118C7.79083 48.852 7.95666 48.2083 7.88124 47.4598C7.50762 47.2674 6.86484 47.484 6.86484 47.484C6.74979 47.5506 6.63917 47.6256 6.53433 47.709C6.35389 47.8853 6.13225 48.0099 5.89171 48.0709C5.65727 48.0698 5.42902 47.9941 5.23698 47.8538C5.04522 47.7134 4.89921 47.515 4.81854 47.2856C4.60448 46.8351 4.50714 46.3342 4.53631 45.8325C4.56519 45.3306 4.71965 44.8454 4.984 44.4251C5.24844 44.0046 5.61349 43.6634 6.04336 43.4357C6.47333 43.2077 6.95259 43.1008 7.43434 43.1255C7.64071 42.9445 7.87989 42.8082 8.1373 42.7249C9.88185 42.1529 11.9442 43.8735 11.9442 43.8735L11.9359 43.1566C11.9359 43.1566 11.0923 41.1395 7.55655 41.0077C7.02587 40.9953 6.51752 40.7804 6.12841 40.404C6.00172 40.2957 5.8995 40.1594 5.82969 40.005C5.76018 39.8506 5.72446 39.6817 5.72543 39.5108C5.78447 38.62 6.40045 38.4297 8.61149 38.4783C10.8224 38.5265 12.9539 39.3382 13.787 40.5968C14.1972 41.1709 14.5667 41.7751 14.893 42.4042C14.893 42.4042 15.1887 35.9527 15.2093 35.5466C15.3194 34.3686 15.9068 33.4232 16.666 33.4143C17.1557 33.4041 17.7698 33.7751 17.6994 35.1474C17.638 36.3419 18.4844 48.6233 18.4844 48.6233L18.4956 49.5578C19.0589 51.2127 20.3249 50.1952 21.0389 49.6214C21.0801 49.5883 21.1195 49.5566 21.1569 49.527C21.2979 49.4154 21.4765 49.2596 21.6817 49.0808C22.7273 48.1697 24.4652 46.6555 25.452 47.2571C26.1754 47.6983 24.5058 49.8985 23.2795 51.5146C22.8076 52.1365 22.4014 52.6717 22.2224 52.9872C21.8354 53.6689 21.4361 55.1285 21.0393 56.5791C20.7755 57.5435 20.5128 58.5038 20.2555 59.2288C20.0108 59.9187 19.8855 61.0452 19.8291 62.2002L21.5607 76.3336C21.5607 76.3336 23.259 86.6265 29.4324 89.9473C28.3263 91.8377 26.7204 93.3548 24.8072 94.3167C22.8943 95.2784 20.7553 95.6443 18.6478 95.3695C16.1575 95.0476 13.8471 93.8503 12.0979 91.9752C10.3486 90.1005 9.26515 87.6595 9.02605 85.0561L8.1669 58.4581L8.05702 57.2447C8.00559 57.0544 7.93465 56.8353 7.85474 56.5884C7.4899 55.4616 6.93788 53.7565 7.19802 51.57C7.2902 50.795 7.45077 50.1719 7.59507 49.6118Z" fill="#B9722B"/>
<path d="M41.277 122.794C43.0839 126.202 61.83 126.202 64.9921 126.202C65.2933 126.202 65.6061 126.202 65.9291 126.204C73.1109 126.214 85.3015 126.232 87.1261 121.43C88.972 116.573 85.9178 109.151 85.8003 103.591C85.7307 100.307 85.6613 97.0284 85.9969 93.9063V84.362C85.9969 81.8621 86.3675 78.696 86.6842 75.9917C86.9202 73.976 87.1261 72.2171 87.1261 71.182C86.6842 69.5913 80.1245 66.2993 62.2818 65.3253C52.6161 64.7977 41.819 66.0461 37.6633 68.2277C33.5075 70.4093 28.1774 76.1818 24.7896 82.0901C24.7896 82.0901 24.823 75.4999 24.2211 72.7732C23.6191 70.0462 21.5108 69.8189 21.5108 69.8189L20.2982 65.3257C13.7484 66.9165 7.9593 65.0469 7.9593 65.0469L7.73344 68.9099C7.73344 68.9099 2.65526 70.9552 2.65527 74.8182C2.65527 78.6815 3.55856 102.769 9.20502 107.541C16.8016 113.961 29.6767 111.773 34.6458 103.591C34.7381 108.893 37.2499 120.768 41.277 122.794Z" fill="#00D1FF"/>
<path d="M54.7296 49.3806C54.8948 45.6709 57.9835 42.7999 61.6282 42.968C65.2732 43.1362 68.0939 46.2799 67.9285 49.9896V54.2916L68.0545 61.488L67.9285 66.5387C67.7633 70.2487 63.948 72.8835 60.3032 72.7155C56.6585 72.5469 53.8377 69.4032 54.003 65.6935L54.7296 49.3806Z" fill="#B9722B"/>
<path fill-rule="evenodd" clip-rule="evenodd" d="M53.9961 66.0325L54.6895 50.4609L63.9602 50.8889C65.5527 50.9623 66.2232 52.7135 66.3595 53.5801L66.0893 59.6526C64.2525 62.5557 57.2591 67.8151 53.9961 66.0325Z" fill="#A4580C"/>
<path d="M50.874 56.013V41.2817C50.9326 40.6286 51.6766 40.252 52.2966 40.4656C56.3134 41.8484 62.1988 39.8516 64.1732 39.8516C66.3732 39.8516 67.6469 40.8527 67.6469 44.7144V52.4375V56.013L64.1732 58.3013C54.4471 64.2512 51.2117 59.2548 50.874 56.013Z" fill="#B9722B"/>
<path d="M49.0614 43.0883C47.8954 47.4946 50.1359 49.7349 50.8826 50.3993L51.2618 43.3065L51.5813 41.7969C54.631 45.5033 63.9676 42.5936 66.448 41.5474C66.448 41.5474 65.062 46.389 67.6651 50.7342C67.8543 50.6511 68.5259 50.107 69.519 50.3993C70.7164 46.0963 71.3615 40.0589 71.3615 40.0589C71.3615 40.0589 71.8655 34.9689 68.4279 35.15C64.81 30.3755 57.9817 31.4103 54.3529 33.7275C50.7241 36.0446 49.9433 34.1567 48.4314 35.093C46.3135 37.3785 47.2582 42.1814 49.0614 43.0883Z" fill="#1D1A27"/>
<path d="M68.7986 53.4703C70.4484 53.4703 71.7857 52.1329 71.7857 50.4832C71.7857 48.8335 70.4484 47.4961 68.7986 47.4961C67.1489 47.4961 65.8115 48.8335 65.8115 50.4832C65.8115 52.1329 67.1489 53.4703 68.7986 53.4703Z" fill="#B9722B"/>
<path d="M52.6363 54.7723C54.9681 52.7451 59.8413 52.7256 62.1023 54.9759C65.8155 55.7126 66.5622 46.0045 66.5622 46.0045L68.0555 45.2578C68.2798 48.176 68.8025 55.7126 66.9856 58.6888C65.1345 61.7207 61.549 63.7595 58.585 63.7595C55.3169 63.7595 52.6363 63.9874 51.0669 60.5318C49.8114 57.7672 50.3566 50.0111 50.8799 48.2448V52.7256C50.8799 54.4255 52.6363 54.7723 52.6363 54.7723Z" fill="#1D1A27"/>
<path d="M84.4549 69.6338C91.4946 68.7113 114.179 118.437 116.077 123.638C117.976 128.839 115.656 132.299 114.875 133.319L116.077 135.402C116.077 135.872 116.432 136.587 112.538 139.163C108.644 141.737 105.868 141.489 104.967 141.042L102.572 137.779C101.692 137.638 97.7092 137.773 94.615 133.606C94.4751 133.419 94.364 133.208 94.2782 132.989L86.1148 112.253C86.8358 114.981 80.0756 121.134 76.7227 122.315L84.4549 69.6338Z" fill="#00D1FF"/>
<path d="M68.0614 61.4883C67.6837 64.3493 63.1525 66.7997 60.5067 68.7369C59.0944 69.771 58.6514 71.424 58.5452 72.7405C58.4022 71.1882 58.0028 69.1753 56.9161 68.2979C55.0263 66.7719 54.3038 66.8665 54.1217 63.985C53.2865 64.2852 51.9821 65.5734 51.4355 68.9352C51.8151 71.5365 53.5153 73.8224 58.6168 74.7829C64.6294 74.7829 70.5521 70.9272 71.463 67.7255C71.463 65.7102 69.8834 61.4883 68.0614 61.4883Z" fill="#00D1FF"/>
<path fill-rule="evenodd" clip-rule="evenodd" d="M53.1217 44.8103C51.4089 44.8103 50.0202 46.1987 50.0202 47.9116C50.0202 49.6244 51.4089 51.0128 53.1217 51.0128C54.8345 51.0128 56.223 49.6244 56.223 47.9116C56.223 46.1987 54.8345 44.8103 53.1217 44.8103ZM49.3818 47.9116C49.3818 45.8462 51.0563 44.1719 53.1217 44.1719C54.903 44.1719 56.3935 45.4173 56.7697 47.0849C57.0007 46.9081 57.2895 46.803 57.6028 46.803C57.9113 46.803 58.196 46.9048 58.4251 47.0765C58.8045 45.4131 60.2928 44.1719 62.0714 44.1719C64.1368 44.1719 65.811 45.8462 65.811 47.9116C65.811 49.977 64.1368 51.6512 62.0714 51.6512C60.0943 51.6512 58.4757 50.1174 58.3406 48.1748H58.3362C58.3362 47.7698 58.0078 47.4414 57.6028 47.4414C57.1979 47.4414 56.8696 47.7698 56.8696 48.1748H56.8523C56.7173 50.1174 55.0986 51.6512 53.1217 51.6512C51.0563 51.6512 49.3818 49.977 49.3818 47.9116ZM58.9699 47.9116C58.9699 46.1987 60.3585 44.8103 62.0714 44.8103C63.7842 44.8103 65.1726 46.1987 65.1726 47.9116C65.1726 49.6244 63.7842 51.0128 62.0714 51.0128C60.3585 51.0128 58.9699 49.6244 58.9699 47.9116Z" fill="#FFF06B"/>
</g>
<path d="M61.7922 22.1055H61.2078C40.6585 22.1055 24 38.764 24 59.3133V59.8977C24 80.447 40.6585 97.1055 61.2078 97.1055H61.7922C82.3415 97.1055 99 80.447 99 59.8977V59.3133C99 38.764 82.3415 22.1055 61.7922 22.1055Z" stroke="white" stroke-width="2.24341"/>
</g>
<g filter="url(#filter1_d_388_9021)">
<mask id="mask1_388_9021" style="mask-type:luminance" maskUnits="userSpaceOnUse" x="76" y="22" width="76" height="76">
<path d="M151.219 59.6055C151.219 38.8948 134.429 22.1055 113.719 22.1055C93.0081 22.1055 76.2188 38.8948 76.2188 59.6055C76.2188 80.3162 93.0081 97.1055 113.719 97.1055C134.429 97.1055 151.219 80.3162 151.219 59.6055Z" fill="white"/>
</mask>
<g mask="url(#mask1_388_9021)">
<path d="M151.219 59.6055C151.219 38.8948 134.429 22.1055 113.719 22.1055C93.0081 22.1055 76.2188 38.8948 76.2188 59.6055C76.2188 80.3162 93.0081 97.1055 113.719 97.1055C134.429 97.1055 151.219 80.3162 151.219 59.6055Z" fill="#D7F4FF"/>
<path d="M105.94 42.4145L100.753 37.043L108.845 38.6715L105.94 42.4145Z" fill="#B7A400"/>
<path fill-rule="evenodd" clip-rule="evenodd" d="M104.6 47.4968C106.094 37.0419 109.228 34.7818 114.302 33.2952C116.843 32.5506 119.573 32.6814 122.028 33.9682C124.483 35.2545 126.641 37.6844 128.064 41.4975C130.159 46.3652 134.627 53.903 139.922 60.3635C142.569 63.5941 145.417 66.5488 148.273 68.7641C151.131 70.982 153.976 72.443 156.619 72.7183L156.573 73.1664C153.808 72.8784 150.883 71.36 147.996 69.12C145.106 66.8772 142.233 63.8955 139.573 60.6489C136.768 57.2257 134.192 53.5009 132.075 50.0245C133.665 53.0411 135.631 56.475 137.853 59.8372C140.389 63.675 143.253 67.4119 146.264 70.3276C149.279 73.2472 152.42 75.322 155.509 75.8747L155.695 75.9079V76.0964C155.695 82.6032 151.252 91.2893 142.701 96.5073C134.134 101.735 121.462 103.476 105.008 96.1283C100.804 94.2511 98.9388 90.7918 98.5289 87.0186C98.1203 83.2567 99.1547 79.176 100.746 75.9957C101.316 74.8564 101.863 72.8117 102.363 70.2635C102.86 67.7231 102.734 66.9933 103.107 63.9258C103.852 57.7886 103.107 57.9516 104.6 47.4968Z" fill="#A4580C"/>
<path d="M128.904 43.4044L100.116 37.0417L100.199 36.6609L105.513 36.3847C107.766 32.5006 111.783 29.9983 116.132 29.8486C116.324 29.0196 117.115 28.4891 117.908 28.6614L120.082 29.1329C120.823 29.294 121.307 30.0121 121.228 30.7858C126.086 32.8278 129.165 37.8895 128.904 43.4044Z" fill="#FFF06B"/>
<path d="M102.164 106.009C103.55 108.588 117.925 108.588 120.35 108.588C120.581 108.588 120.821 108.588 121.069 108.588C126.576 108.596 139.688 109.642 141.087 106.009C142.503 102.332 152.474 93.9971 152.383 89.7898C152.208 81.5935 149.332 79.396 142.942 72.1958C134.36 62.5248 131.954 63.2619 118.272 62.5248C110.86 62.1254 102.58 63.0702 99.3933 64.721C96.2065 66.3716 93.2875 70.8792 90.6895 75.3498C88.0915 79.8202 83.6807 90.4517 83.6807 90.4517L98.6419 98.069C98.7127 102.08 99.0765 104.476 102.164 106.009Z" fill="#534BEF"/>
<path d="M123.26 63.1814L122.089 51.9797C122.761 51.9797 124.764 50.9513 124.754 48.2458C124.746 46.1103 122.731 45.4289 121.505 46.2746C121.147 46.521 120.775 46.775 120.341 46.7729C118.297 46.7636 112.156 46.2 109.071 40.0312C107.578 43.7652 106.755 48.0842 107.027 51.4028C107.43 56.3217 110.477 58.1179 111.568 57.9539V64.675C116.607 66.8392 121.581 64.8209 123.26 63.1814Z" fill="#FFCDAE"/>
<path d="M119.78 52.7266C116.046 57.2072 112.574 57.9541 111.565 57.9541L111.555 60.7343C116.13 60.1521 119.52 54.5868 119.78 52.7266Z" fill="#E5AE8C"/>
</g>
<path d="M151.223 59.6055C151.223 38.8948 134.433 22.1055 113.723 22.1055C93.012 22.1055 76.2227 38.8948 76.2227 59.6055C76.2227 80.3162 93.012 97.1055 113.723 97.1055C134.433 97.1055 151.223 80.3162 151.223 59.6055Z" stroke="white" stroke-width="2.28964"/>
</g>
<g filter="url(#filter2_d_388_9021)">
<mask id="mask2_388_9021" style="mask-type:luminance" maskUnits="userSpaceOnUse" x="128" y="22" width="76" height="76">
<path d="M203.441 59.6055C203.441 38.8948 186.652 22.1055 165.941 22.1055C145.231 22.1055 128.441 38.8948 128.441 59.6055C128.441 80.3162 145.231 97.1055 165.941 97.1055C186.652 97.1055 203.441 80.3162 203.441 59.6055Z" fill="white"/>
</mask>
<g mask="url(#mask2_388_9021)">
<path d="M203.441 59.6055C203.441 38.8948 186.652 22.1055 165.941 22.1055C145.231 22.1055 128.441 38.8948 128.441 59.6055C128.441 80.3162 145.231 97.1055 165.941 97.1055C186.652 97.1055 203.441 80.3162 203.441 59.6055Z" fill="#FFFBDC"/>
<path d="M172.076 48.2416C168.491 52.4234 173.072 58.4474 175.81 60.9367C175.81 60.9367 177.459 56.4556 178.052 53.4691C178.794 49.7392 178.799 43.7603 178.799 43.7603C178.302 42.0176 175.66 44.0596 172.076 48.2416Z" fill="#A3580F"/>
<path d="M143.565 104.458C148.413 106.225 152.736 106.578 153.222 105.245C153.708 103.913 150.172 101.4 145.324 99.6331C140.477 97.866 136.153 97.5138 135.667 98.8462C135.182 100.179 138.718 102.691 143.565 104.458Z" fill="#605ADE"/>
<path d="M147.293 85.8667L157.397 92.2969L142.971 114.967L132.866 108.537L147.293 85.8667Z" fill="#EEBFA2"/>
<path d="M158.65 43.6868C152.508 42.3611 150.571 41.2497 150.429 40.7762C154.524 38.6929 163.058 39.7411 166.755 40.6092C166.613 42.1875 164.793 45.0127 158.65 43.6868Z" fill="#00AFD6"/>
<path d="M153.348 124.109C152.582 123.711 152.054 122.991 151.8 122.166C149.514 114.771 148.546 108.104 148.205 102.78C144.542 100.731 140.502 99.3969 136.301 98.8729L135.574 98.7821C135.574 98.7821 135.971 95.9037 138.58 90.5911C139.184 89.3612 139.749 88.1603 140.303 86.9814C142.144 83.0682 143.87 79.3994 146.525 75.7292C149.642 71.4214 152.342 69.9024 155.329 69.1555C158.316 68.4088 165.783 67.6616 165.783 67.6616H180.719C185.024 67.5759 197.894 68.4081 200.136 78.8629C201.311 81.8021 197.821 90.0518 197.009 98.3897C196.417 104.491 195.73 111.539 195.597 118.81C195.567 120.398 194.915 121.943 193.601 122.834C182.188 130.565 161.163 128.166 153.348 124.109Z" fill="#01D0FF"/>
<path d="M154.627 83.38L161.762 84.0472C161.99 84.0686 162.158 84.2712 162.137 84.4998L161.834 87.7396C161.813 87.9681 161.61 88.1361 161.382 88.1147L154.246 87.4475C154.018 87.4262 153.85 87.2235 153.871 86.995L154.174 83.7552C154.196 83.5266 154.398 83.3587 154.627 83.38Z" fill="#F0FBFF"/>
<path d="M163.12 49.7367C163.12 46.0247 166.129 43.0156 169.841 43.0156C173.553 43.0156 176.562 46.0247 176.562 49.7367V67.6592C176.562 71.3712 173.553 72.8867 169.841 72.8867C166.129 72.8867 163.12 71.3712 163.12 67.6592V49.7367Z" fill="#FFCDAE"/>
<path fill-rule="evenodd" clip-rule="evenodd" d="M163.12 64.4836V50.5469H172.15C173.748 50.5469 174.498 52.2077 174.674 53.038L175.066 57.2037C173.233 60.2942 165.998 67.0325 163.12 64.4836Z" fill="#E5AE8C"/>
<path d="M176.567 54.9664C178.217 54.9664 179.554 53.629 179.554 51.9793C179.554 50.3295 178.217 48.9922 176.567 48.9922C174.917 48.9922 173.58 50.3295 173.58 51.9793C173.58 53.629 174.917 54.9664 176.567 54.9664Z" fill="#FFCDAE"/>
<path d="M171.993 59.8964C163.379 65.3399 160.433 60.7687 160.135 57.8027L160.081 49.1892L160.128 43.0162C163.596 45.2844 171.621 42.2695 173.57 42.2695C175.518 42.2695 175.069 43.9322 175.069 47.4653V54.5315V57.8027L171.993 59.8964Z" fill="#FFCDAE"/>
<path d="M157.9 46.007C157.9 48.7969 159.314 50.2229 160.144 50.4863V44.5136C160.887 48.2473 168.355 46.007 172.088 44.5136C172.088 44.5136 171.346 48.2459 175.019 50.2721C175.192 50.1962 175.822 48.9942 177.316 48.9942C178.809 44.515 178.814 46.007 179.047 42.7211C179.218 40.318 178.009 37.4769 175.715 37.5288C172.412 33.1673 164.113 34.0451 162.862 36.2294C161.611 38.4136 158.954 38.828 157.573 39.6836C155.639 41.7714 156.253 45.1785 157.9 46.007Z" fill="#A3580E"/>
<path d="M168.34 41.2595C172.82 41.5231 177.063 44.803 178.798 46.0037C179.231 44.2026 180.288 40.0295 176.557 36.2958C174.836 34.573 170.227 33.3086 166.844 33.3086C162.363 33.3086 160.07 36.3305 159.376 37.7885C159.116 37.9601 157.883 38.0035 154.896 38.5354C151.821 39.0827 151.045 40.0597 150.415 40.7757C152.655 40.0288 154.956 39.7157 159.12 41.2595C163.283 42.8034 165.222 41.0762 168.34 41.2595Z" fill="#01D0FF"/>
</g>
<path d="M203.44 59.6055C203.44 38.8948 186.651 22.1055 165.94 22.1055C145.23 22.1055 128.44 38.8948 128.44 59.6055C128.44 80.3162 145.23 97.1055 165.94 97.1055C186.651 97.1055 203.44 80.3162 203.44 59.6055Z" stroke="white" stroke-width="2.27671"/>
</g>
<g filter="url(#filter3_d_388_9021)">
<mask id="mask3_388_9021" style="mask-type:luminance" maskUnits="userSpaceOnUse" x="180" y="22" width="76" height="76">
<path d="M255.662 59.6055C255.662 38.8948 238.873 22.1055 218.162 22.1055C197.451 22.1055 180.662 38.8948 180.662 59.6055C180.662 80.3162 197.451 97.1055 218.162 97.1055C238.873 97.1055 255.662 80.3162 255.662 59.6055Z" fill="white"/>
</mask>
<g mask="url(#mask3_388_9021)">
<path d="M255.662 59.6055C255.662 38.8948 238.873 22.1055 218.162 22.1055C197.451 22.1055 180.662 38.8948 180.662 59.6055C180.662 80.3162 197.451 97.1055 218.162 97.1055C238.873 97.1055 255.662 80.3162 255.662 59.6055Z" fill="#D7F4FF"/>
<path d="M209.031 38.5369C210.524 31.0691 216.992 33.0606 219.48 33.3094C225.458 29.1271 232.172 34.8027 232.172 37.0438C236.661 37.7902 237.657 42.7687 236.661 44.5111C243.83 45.1085 242.635 53.4718 240.387 54.2187C243.971 58.9979 243.373 64.4245 240.387 65.4202C235.159 65.4202 214.975 69.307 209.031 69.9009C201.562 70.6472 202.736 65.9754 201.553 62.4338C199.559 56.4595 203.307 51.9788 204.55 51.232C203.057 47.4981 205.54 45.0095 206.786 43.7649C205.296 42.2708 206.789 38.5369 209.031 38.5369Z" fill="#1D1A27"/>
<path d="M207.267 105.743C208.666 108.39 223.171 108.39 225.619 108.39C225.852 108.39 226.094 108.39 226.343 108.392C231.901 108.399 245.132 109.473 246.543 105.743C247.971 101.969 258.033 93.4112 257.942 89.0916C257.765 80.6766 254.863 78.4206 248.416 71.0279C239.756 61.099 237.327 61.8557 223.521 61.099C216.042 60.6891 206.929 62.9792 203.713 64.6738C200.498 66.3686 198.311 69.6763 195.689 74.2662C193.067 78.856 188.616 89.771 188.616 89.771L203.713 97.5916C203.783 101.71 204.152 104.169 207.267 105.743Z" fill="#534BEF"/>
<path d="M228.121 62.431L226.909 51.976C227.58 51.976 229.839 51.6944 229.828 48.989C229.82 46.5364 227.256 46.0857 226.355 46.7616C226.355 46.7616 222.975 48.1133 219.146 44.058C216.944 41.7276 217.342 39.1016 217.342 39.1016C216.442 41.805 214.617 43.8566 211.847 44.5124C211.678 44.7584 211.444 46.48 211.847 51.3991C212.25 56.318 215.295 58.1142 216.387 57.9502V64.6713C221.425 66.8355 226.443 64.0705 228.121 62.431Z" fill="#B9722B"/>
<path d="M226.953 53.4715C227.777 53.4715 228.446 52.8028 228.446 51.9779C228.446 51.1531 227.777 50.4844 226.953 50.4844C226.128 50.4844 225.459 51.1531 225.459 51.9779C225.459 52.8028 226.128 53.4715 226.953 53.4715Z" fill="#FDD600"/>
<path d="M224.594 52.7266C220.86 57.2072 217.388 57.9541 216.38 57.9541L216.368 60.7343C220.944 60.1521 224.335 54.5868 224.594 52.7266Z" fill="#A4580C"/>
</g>
<path d="M255.659 59.6055C255.659 38.8948 238.87 22.1055 218.159 22.1055C197.448 22.1055 180.659 38.8948 180.659 59.6055C180.659 80.3162 197.448 97.1055 218.159 97.1055C238.87 97.1055 255.659 80.3162 255.659 59.6055Z" stroke="white" stroke-width="2.28964"/>
</g>
<defs>
<filter id="filter0_d_388_9021" x="0.175333" y="0.952675" width="122.649" height="122.647" filterUnits="userSpaceOnUse" color-interpolation-filters="sRGB">
<feFlood flood-opacity="0" result="BackgroundImageFix"/>
<feColorMatrix in="SourceAlpha" type="matrix" values="0 0 0 0 0 0 0 0 0 0 0 0 0 0 0 0 0 0 127 0" result="hardAlpha"/>
<feOffset dy="2.6709"/>
<feGaussianBlur stdDeviation="11.3513"/>
<feComposite in2="hardAlpha" operator="out"/>
<feColorMatrix type="matrix" values="0 0 0 0 0.190972 0 0 0 0 0.307765 0 0 0 0 0.833333 0 0 0 0.17 0"/>
<feBlend mode="normal" in2="BackgroundImageFix" result="effect1_dropShadow_388_9021"/>
<feBlend mode="normal" in="SourceGraphic" in2="effect1_dropShadow_388_9021" result="shape"/>
</filter>
<filter id="filter1_d_388_9021" x="51.9077" y="0.516417" width="123.63" height="123.63" filterUnits="userSpaceOnUse" color-interpolation-filters="sRGB">
<feFlood flood-opacity="0" result="BackgroundImageFix"/>
<feColorMatrix in="SourceAlpha" type="matrix" values="0 0 0 0 0 0 0 0 0 0 0 0 0 0 0 0 0 0 127 0" result="hardAlpha"/>
<feOffset dy="2.72594"/>
<feGaussianBlur stdDeviation="11.5852"/>
<feComposite in2="hardAlpha" operator="out"/>
<feColorMatrix type="matrix" values="0 0 0 0 0.190972 0 0 0 0 0.307765 0 0 0 0 0.833333 0 0 0 0.17 0"/>
<feBlend mode="normal" in2="BackgroundImageFix" result="effect1_dropShadow_388_9021"/>
<feBlend mode="normal" in="SourceGraphic" in2="effect1_dropShadow_388_9021" result="shape"/>
</filter>
<filter id="filter2_d_388_9021" x="104.262" y="0.639732" width="123.356" height="123.353" filterUnits="userSpaceOnUse" color-interpolation-filters="sRGB">
<feFlood flood-opacity="0" result="BackgroundImageFix"/>
<feColorMatrix in="SourceAlpha" type="matrix" values="0 0 0 0 0 0 0 0 0 0 0 0 0 0 0 0 0 0 127 0" result="hardAlpha"/>
<feOffset dy="2.71054"/>
<feGaussianBlur stdDeviation="11.5198"/>
<feComposite in2="hardAlpha" operator="out"/>
<feColorMatrix type="matrix" values="0 0 0 0 0.190972 0 0 0 0 0.307765 0 0 0 0 0.833333 0 0 0 0.17 0"/>
<feBlend mode="normal" in2="BackgroundImageFix" result="effect1_dropShadow_388_9021"/>
<feBlend mode="normal" in="SourceGraphic" in2="effect1_dropShadow_388_9021" result="shape"/>
</filter>
<filter id="filter3_d_388_9021" x="156.344" y="0.516417" width="123.63" height="123.63" filterUnits="userSpaceOnUse" color-interpolation-filters="sRGB">
<feFlood flood-opacity="0" result="BackgroundImageFix"/>
<feColorMatrix in="SourceAlpha" type="matrix" values="0 0 0 0 0 0 0 0 0 0 0 0 0 0 0 0 0 0 127 0" result="hardAlpha"/>
<feOffset dy="2.72594"/>
<feGaussianBlur stdDeviation="11.5852"/>
<feComposite in2="hardAlpha" operator="out"/>
<feColorMatrix type="matrix" values="0 0 0 0 0.190972 0 0 0 0 0.307765 0 0 0 0 0.833333 0 0 0 0.17 0"/>
<feBlend mode="normal" in2="BackgroundImageFix" result="effect1_dropShadow_388_9021"/>
<feBlend mode="normal" in="SourceGraphic" in2="effect1_dropShadow_388_9021" result="shape"/>
</filter>
</defs>
</svg>
