<svg width="226" height="179" viewBox="0 0 226 179" fill="none" xmlns="http://www.w3.org/2000/svg">
<g filter="url(#filter0_d_388_9094)">
<path d="M8.09473 73.9227C8.09054 68.8834 11.7852 64.7955 16.3446 64.795L131.831 64.7813C136.385 64.7807 140.079 68.8584 140.083 73.892L140.153 156.964C140.157 162.003 136.462 166.091 131.903 166.092L16.416 166.105C11.862 166.107 8.16879 162.028 8.16459 156.996L8.09473 73.9227Z" fill="white"/>
<path d="M19.0996 79.8665C19.1035 79.0879 19.6777 78.4604 20.3822 78.4649L35.3244 78.558C36.0288 78.5624 36.5966 79.1971 36.5927 79.9757C36.5887 80.7541 36.0145 81.3816 35.31 81.3774L20.3678 81.2841C19.6634 81.2798 19.0956 80.6451 19.0996 79.8665Z" fill="#EAEDF2"/>
<path d="M36.5889 129.538C36.5889 128.736 37.177 128.086 37.9027 128.086H45.1995C45.9251 128.086 46.5133 128.736 46.5133 129.538V150.025H36.5889V129.538Z" fill="#00D1FF"/>
<path d="M67.1943 119.483C67.1943 118.681 67.7826 118.031 68.5082 118.031H76.632C77.3576 118.031 77.9459 118.681 77.9459 119.483V150.025H67.1943V119.483Z" fill="#00D1FF"/>
<path d="M51.4756 110.343C51.4756 109.541 52.0639 108.891 52.7894 108.891H60.9133C61.639 108.891 62.2271 109.541 62.2271 110.343V150.024H51.4756V110.343Z" fill="#00D1FF"/>
<path d="M82.9131 110.343C82.9131 109.541 83.5014 108.891 84.2269 108.891H92.3508C93.0763 108.891 93.6646 109.541 93.6646 110.343V150.024H82.9131V110.343Z" fill="#00D1FF"/>
<path d="M98.6338 104.858C98.6338 104.056 99.2221 103.406 99.9476 103.406H108.071C108.797 103.406 109.385 104.056 109.385 104.858V150.026H98.6338V104.858Z" fill="#00D1FF"/>
<path d="M114.352 100.288C114.352 99.4861 114.94 98.8359 115.665 98.8359H123.789C124.515 98.8359 125.103 99.4861 125.103 100.288V150.025H114.352V100.288Z" fill="#00D1FF"/>
<path d="M22.6786 148.375H20.4438C19.6906 148.375 19.0801 149.05 19.0801 149.882V149.907C19.0801 150.74 19.6906 151.415 20.4438 151.415H22.6786C23.4318 151.415 24.0423 150.74 24.0423 149.907V149.882C24.0423 149.05 23.4318 148.375 22.6786 148.375Z" fill="#EAEDF2"/>
<path d="M22.6786 134.695H20.4438C19.6906 134.695 19.0801 135.37 19.0801 136.203V136.228C19.0801 137.06 19.6906 137.735 20.4438 137.735H22.6786C23.4318 137.735 24.0423 137.06 24.0423 136.228V136.203C24.0423 135.37 23.4318 134.695 22.6786 134.695Z" fill="#EAEDF2"/>
<path d="M22.6786 121.016H20.4438C19.6906 121.016 19.0801 121.69 19.0801 122.523V122.548C19.0801 123.381 19.6906 124.055 20.4438 124.055H22.6786C23.4318 124.055 24.0423 123.381 24.0423 122.548V122.523C24.0423 121.69 23.4318 121.016 22.6786 121.016Z" fill="#EAEDF2"/>
<path d="M22.6786 107.336H20.4438C19.6906 107.336 19.0801 108.011 19.0801 108.843V108.868C19.0801 109.701 19.6906 110.376 20.4438 110.376H22.6786C23.4318 110.376 24.0423 109.701 24.0423 108.868V108.843C24.0423 108.011 23.4318 107.336 22.6786 107.336Z" fill="#EAEDF2"/>
<path d="M22.6786 93.6602H20.4438C19.6906 93.6602 19.0801 94.335 19.0801 95.1674V95.1926C19.0801 96.0251 19.6906 96.6999 20.4438 96.6999H22.6786C23.4318 96.6999 24.0423 96.0251 24.0423 95.1926V95.1674C24.0423 94.335 23.4318 93.6602 22.6786 93.6602Z" fill="#EAEDF2"/>
</g>
<g filter="url(#filter1_d_388_9094)">
<path d="M86.2744 28.3475C86.2702 24.0474 89.9647 20.559 94.5243 20.5586L210.01 20.5469C214.565 20.5464 218.258 24.0261 218.263 28.3212L218.332 99.2092C218.337 103.509 214.642 106.998 210.083 106.998L94.5957 107.01C90.0416 107.01 86.3483 103.531 86.3441 99.2355L86.2744 28.3475Z" fill="white"/>
<path d="M183.716 58.1328L183.716 58.1328C183.725 56.7521 182.612 55.6269 181.231 55.6195L181.231 55.6195C179.851 55.6122 178.725 56.7255 178.717 58.1062L178.717 58.1062C178.708 59.4869 179.821 60.6121 181.202 60.6194L181.202 60.6194C182.582 60.6268 183.708 59.5135 183.716 58.1328Z" fill="#534BEF"/>
<path d="M186.864 58.4969C186.869 57.8325 187.444 57.297 188.147 57.3008L203.089 57.3802C203.794 57.384 204.362 57.9256 204.358 58.59C204.354 59.2543 203.78 59.7898 203.075 59.7861L188.132 59.7065C187.429 59.7029 186.861 59.1613 186.864 58.4969Z" fill="#EAEDF2"/>
<path d="M183.866 68.4549L183.866 68.4549C183.875 66.9179 182.562 65.6648 180.932 65.6562L180.932 65.6562C179.302 65.6475 177.974 66.8865 177.965 68.4235L177.965 68.4235C177.955 69.9605 179.269 71.2135 180.899 71.2222L180.899 71.2222C182.528 71.2309 183.857 69.9919 183.866 68.4549Z" fill="#5145EB"/>
<path d="M187.016 68.54C187.019 67.8756 187.593 67.3401 188.298 67.3438L203.241 67.4234C203.944 67.427 204.512 67.9686 204.509 68.633C204.504 69.2974 203.93 69.8329 203.226 69.8291L188.284 69.7497C187.579 69.7458 187.012 69.2043 187.016 68.54Z" fill="#EAEDF2"/>
<mask id="mask0_388_9094" style="mask-type:luminance" maskUnits="userSpaceOnUse" x="99" y="33" width="68" height="64">
<path d="M158.256 33.7966L108.564 33.5322C104.007 33.5079 100.293 36.9722 100.267 41.2698L99.9866 88.1366C99.9609 92.4343 103.634 95.9378 108.191 95.9621L157.882 96.2265C162.439 96.2507 166.154 92.7865 166.179 88.4888L166.46 41.622C166.485 37.3244 162.812 33.8208 158.256 33.7966Z" fill="white"/>
</mask>
<g mask="url(#mask0_388_9094)">
<path d="M130.831 81.9393C121.198 81.8849 113.407 74.004 113.461 64.3692L124.304 64.4304C124.283 68.0849 127.238 71.0766 130.892 71.0973C134.546 71.1178 137.535 68.1624 137.555 64.505C137.576 60.8505 134.621 57.8588 130.967 57.8381L131.028 46.9961C140.661 47.0505 148.452 54.9313 148.398 64.5662C148.344 74.2012 140.464 81.9937 130.831 81.9393Z" fill="#5145EB"/>
<path d="M124.304 64.4306L113.461 64.3694C113.515 54.7344 121.395 46.942 131.028 46.9964L130.967 57.8413C127.313 57.8206 124.324 60.7761 124.304 64.4334V64.4306Z" fill="#D9DBFF"/>
<path d="M101.169 72.6917C100.454 70.0277 100.102 67.2685 100.118 64.488C100.214 47.3955 114.196 33.568 131.285 33.6646L131.22 45.2164C120.497 45.1559 111.725 53.8309 111.665 64.556C111.655 66.3038 111.877 68.0382 112.324 69.7062L101.169 72.6917Z" fill="#D9DBFF"/>
<path d="M131.295 33.6641L131.23 45.2159C141.953 45.2765 150.627 54.0498 150.567 64.775C150.506 75.5001 141.734 84.1751 131.01 84.1146C122.27 84.0652 114.59 78.1398 112.334 69.7086L101.179 72.6912C104.774 86.1381 117.016 95.585 130.948 95.6636C148.038 95.76 162.019 81.9326 162.116 64.8402C162.21 47.7447 148.384 33.7605 131.295 33.6641Z" fill="#766CFF"/>
</g>
<g filter="url(#filter2_d_388_9094)">
<mask id="mask1_388_9094" style="mask-type:luminance" maskUnits="userSpaceOnUse" x="187" y="8" width="23" height="23">
<path d="M209.029 19.1055C209.029 13.0303 204.104 8.10547 198.029 8.10547C191.954 8.10547 187.029 13.0303 187.029 19.1055C187.029 25.1806 191.954 30.1055 198.029 30.1055C204.104 30.1055 209.029 25.1806 209.029 19.1055Z" fill="white"/>
</mask>
<g mask="url(#mask1_388_9094)">
<path d="M209.029 19.1055C209.029 13.0303 204.104 8.10547 198.029 8.10547C191.954 8.10547 187.029 13.0303 187.029 19.1055C187.029 25.1806 191.954 30.1055 198.029 30.1055C204.104 30.1055 209.029 25.1806 209.029 19.1055Z" fill="#D7F4FF"/>
<path d="M195.336 12.9178C195.774 10.7273 197.67 11.3114 198.401 11.3844C200.155 10.1576 202.124 11.8225 202.124 12.4799C203.441 12.6987 203.733 14.1591 203.441 14.6703C205.544 14.8455 205.193 17.2988 204.533 17.5178C205.584 18.9198 205.41 20.5116 204.533 20.8037C203.001 20.8037 197.079 21.9437 195.336 22.118C193.145 22.3369 193.489 20.9664 193.142 19.9276C192.557 18.1752 193.656 16.8608 194.022 16.6417C193.583 15.5465 194.312 14.8165 194.677 14.4513C194.24 14.013 194.679 12.9178 195.336 12.9178Z" fill="#1D1A27"/>
<path d="M194.827 32.6332C195.238 33.4099 199.492 33.4099 200.21 33.4099L200.422 33.4102C202.052 33.4126 205.934 33.7272 206.348 32.6332C206.767 31.5263 209.718 29.0158 209.691 27.7487C209.64 25.2804 208.788 24.6186 206.896 22.4502C204.356 19.5376 203.645 19.7596 199.595 19.5376C197.4 19.4174 194.728 20.0891 193.785 20.5861C192.84 21.0834 192.2 22.0536 191.431 23.4C190.661 24.7463 189.355 27.9482 189.355 27.9482L193.785 30.2422C193.806 31.4503 193.913 32.1715 194.827 32.6332Z" fill="#534BEF"/>
<path d="M200.945 19.9331L200.588 16.8665C200.787 16.8665 201.449 16.7838 201.446 15.9903C201.443 15.2708 200.691 15.1386 200.426 15.3368C200.426 15.3368 199.435 15.7334 198.311 14.5437C197.666 13.8602 197.783 13.0898 197.783 13.0898C197.519 13.8829 196.983 14.4846 196.171 14.6772C196.121 14.7492 196.052 15.2542 196.171 16.6972C196.288 18.1401 197.183 18.6669 197.502 18.6188L197.504 20.5904C198.981 21.2252 200.453 20.4141 200.945 19.9331Z" fill="#B9722B"/>
<path d="M200.59 17.3059C200.832 17.3059 201.029 17.1098 201.029 16.8678C201.029 16.6258 200.832 16.4297 200.59 16.4297C200.348 16.4297 200.152 16.6258 200.152 16.8678C200.152 17.1098 200.348 17.3059 200.59 17.3059Z" fill="#FDD600"/>
<path d="M199.893 17.082C198.798 18.3964 197.78 18.6153 197.483 18.6153L197.48 19.431C198.822 19.2603 199.816 17.6277 199.893 17.082Z" fill="#A4580C"/>
</g>
<path d="M209.029 19.1055C209.029 13.0303 204.104 8.10547 198.029 8.10547C191.954 8.10547 187.029 13.0303 187.029 19.1055C187.029 25.1806 191.954 30.1055 198.029 30.1055C204.104 30.1055 209.029 25.1806 209.029 19.1055Z" stroke="white" stroke-width="0.796367"/>
</g>
<g filter="url(#filter3_d_388_9094)">
<mask id="mask2_388_9094" style="mask-type:luminance" maskUnits="userSpaceOnUse" x="170" y="8" width="23" height="23">
<path d="M192.94 19.1055C192.94 13.0303 188.015 8.10547 181.941 8.10547C175.867 8.10547 170.942 13.0303 170.942 19.1055C170.942 25.1806 175.867 30.1055 181.941 30.1055C188.015 30.1055 192.94 25.1806 192.94 19.1055Z" fill="white"/>
</mask>
<g mask="url(#mask2_388_9094)">
<path d="M192.94 19.1055C192.94 13.0303 188.015 8.10547 181.941 8.10547C175.867 8.10547 170.942 13.0303 170.942 19.1055C170.942 25.1806 175.867 30.1055 181.941 30.1055C188.015 30.1055 192.94 25.1806 192.94 19.1055Z" fill="#FFFBDC"/>
<path d="M183.735 15.7669C182.684 16.9937 184.029 18.7607 184.832 19.4909C184.832 19.4909 185.314 18.1764 185.489 17.3003C185.707 16.2063 185.708 14.4524 185.708 14.4524C185.562 13.9413 184.786 14.5402 183.735 15.7669Z" fill="#A3580F"/>
<path d="M175.374 32.2602C176.796 32.7785 178.064 32.8818 178.206 32.491C178.349 32.1001 177.312 31.3631 175.89 30.8448C174.468 30.3264 173.2 30.2231 173.057 30.6139C172.915 31.0048 173.952 31.7418 175.374 32.2602Z" fill="#605ADE"/>
<path d="M176.472 26.8091L179.436 28.6953L175.204 35.3452L172.241 33.459L176.472 26.8091Z" fill="#EEBFA2"/>
<path d="M179.803 14.4363C178.002 14.0475 177.433 13.7215 177.393 13.5826C178.593 12.9714 181.096 13.279 182.181 13.5336C182.139 13.9965 181.605 14.8252 179.803 14.4363Z" fill="#00AFD6"/>
<path d="M178.246 38.0244C178.02 37.9077 177.867 37.6965 177.792 37.4545C177.121 35.2852 176.837 33.3298 176.738 31.768C175.662 31.1667 174.477 30.7755 173.246 30.6218L173.032 30.5951C173.032 30.5951 173.15 29.7508 173.915 28.1924C174.091 27.8317 174.258 27.4793 174.42 27.1336C174.96 25.9857 175.465 24.9095 176.244 23.8329C177.159 22.5694 177.951 22.1238 178.826 21.9047C179.703 21.6857 181.893 21.4664 181.893 21.4664H186.273C187.536 21.4413 191.311 21.6854 191.968 24.7522C192.314 25.6144 191.29 28.0343 191.051 30.4801C190.878 32.2695 190.676 34.3374 190.637 36.47C190.628 36.9355 190.437 37.389 190.052 37.6502C186.705 39.9184 180.538 39.2146 178.246 38.0244Z" fill="#01D0FF"/>
<path d="M178.619 26.0781L180.712 26.2738C180.779 26.2801 180.828 26.3395 180.822 26.4066L180.733 27.3569C180.727 27.4239 180.667 27.4732 180.6 27.4669L178.507 27.2712C178.44 27.265 178.391 27.2055 178.397 27.1385L178.486 26.1881C178.492 26.1211 178.552 26.0718 178.619 26.0781Z" fill="#F0FBFF"/>
<path d="M181.116 16.2097C181.116 15.121 181.999 14.2383 183.088 14.2383C184.176 14.2383 185.059 15.121 185.059 16.2097V21.467C185.059 22.5559 184.176 23.0005 183.088 23.0005C181.999 23.0005 181.116 22.5559 181.116 21.467V16.2097Z" fill="#FFCDAE"/>
<path fill-rule="evenodd" clip-rule="evenodd" d="M181.105 20.5351V16.4492H183.755C184.224 16.4492 184.444 16.9364 184.497 17.18L184.611 18.402C184.072 19.3093 181.948 21.289 181.105 20.5351Z" fill="#E5AE8C"/>
<path d="M185.047 17.7407C185.531 17.7407 185.923 17.3484 185.923 16.8645C185.923 16.3806 185.531 15.9883 185.047 15.9883C184.563 15.9883 184.171 16.3806 184.171 16.8645C184.171 17.3484 184.563 17.7407 185.047 17.7407Z" fill="#FFCDAE"/>
<path d="M183.717 19.1901C181.191 20.7869 180.326 19.4461 180.239 18.576L180.224 16.0493L180.237 14.2387C181.254 14.9039 183.607 14.0195 184.179 14.0195C184.75 14.0195 184.619 14.5073 184.619 15.5437V17.6163V18.576L183.717 19.1901Z" fill="#FFCDAE"/>
<path d="M179.578 15.1132C179.578 15.9315 179.993 16.3498 180.237 16.4271V14.6751C180.455 15.7703 182.644 15.1132 183.739 14.6751C183.739 14.6751 183.523 15.77 184.599 16.3642C184.65 16.3419 184.835 15.9894 185.273 15.9894C185.711 14.6755 185.712 15.1132 185.781 14.1493C185.831 13.4444 185.476 12.611 184.804 12.6262C183.835 11.3468 181.401 11.6044 181.034 12.2451C180.667 12.8858 179.888 13.0073 179.483 13.2583C178.915 13.8707 179.095 14.8701 179.578 15.1132Z" fill="#A3580E"/>
<path d="M182.643 13.723C183.957 13.8003 185.203 14.7624 185.711 15.1146C185.839 14.5863 186.148 13.3622 185.054 12.2668C184.548 11.7615 183.198 11.3906 182.205 11.3906C180.891 11.3906 180.219 12.2771 180.014 12.7048C179.938 12.7552 179.577 12.7678 178.7 12.9238C177.799 13.0844 177.571 13.3709 177.386 13.581C178.043 13.3619 178.718 13.2702 179.939 13.723C181.16 14.1759 181.729 13.6692 182.643 13.723Z" fill="#01D0FF"/>
</g>
<path d="M192.936 19.1055C192.936 13.0303 188.012 8.10547 181.937 8.10547C175.863 8.10547 170.938 13.0303 170.938 19.1055C170.938 25.1806 175.863 30.1055 181.937 30.1055C188.012 30.1055 192.936 25.1806 192.936 19.1055Z" stroke="white" stroke-width="0.791866"/>
</g>
<g filter="url(#filter4_d_388_9094)">
<mask id="mask3_388_9094" style="mask-type:luminance" maskUnits="userSpaceOnUse" x="154" y="8" width="23" height="23">
<path d="M176.864 19.1055C176.864 13.0303 171.939 8.10547 165.864 8.10547C159.789 8.10547 154.864 13.0303 154.864 19.1055C154.864 25.1806 159.789 30.1055 165.864 30.1055C171.939 30.1055 176.864 25.1806 176.864 19.1055Z" fill="white"/>
</mask>
<g mask="url(#mask3_388_9094)">
<path d="M176.864 19.1055C176.864 13.0303 171.939 8.10547 165.864 8.10547C159.789 8.10547 154.864 13.0303 154.864 19.1055C154.864 25.1806 159.789 30.1055 165.864 30.1055C171.939 30.1055 176.864 25.1806 176.864 19.1055Z" fill="#D7F4FF"/>
<path d="M163.589 14.0639L162.067 12.4883L164.441 12.9659L163.589 14.0639Z" fill="#B7A400"/>
<path fill-rule="evenodd" clip-rule="evenodd" d="M163.181 15.5494C163.62 12.4826 164.539 11.8197 166.028 11.3837C166.772 11.1651 167.574 11.2035 168.294 11.581C169.013 11.9583 169.646 12.6711 170.064 13.7896C170.678 15.2175 171.989 17.4286 173.541 19.3237C174.319 20.2713 175.154 21.1381 175.991 21.7878C176.83 22.4384 177.665 22.867 178.44 22.9478L178.426 23.0793C177.616 22.9947 176.757 22.5493 175.91 21.8923C175.063 21.2343 174.22 20.3598 173.439 19.4074C172.616 18.4032 171.861 17.3106 171.24 16.2909C171.707 17.1758 172.284 18.183 172.935 19.1693C173.68 20.2951 174.519 21.3912 175.403 22.2465C176.288 23.1029 177.208 23.7115 178.115 23.8737L178.169 23.8834V23.9386C178.169 25.8473 176.865 28.3952 174.356 29.9259C171.845 31.4593 168.127 31.9699 163.301 29.8147C162.068 29.2641 161.52 28.2494 161.4 27.1426C161.281 26.039 161.583 24.8421 162.051 23.9092C162.218 23.575 162.379 22.9752 162.525 22.2277C162.671 21.4825 162.635 21.2685 162.743 20.3686C162.963 18.5684 162.743 18.6162 163.181 15.5494Z" fill="#A4580C"/>
<path d="M170.328 14.3499L161.885 12.4834L161.909 12.3717L163.467 12.2908C164.129 11.1513 165.306 10.4174 166.582 10.3735C166.639 10.1303 166.87 9.97461 167.103 10.0251L167.741 10.1635C167.958 10.2107 168.101 10.4214 168.077 10.6484C169.502 11.2473 170.405 12.7322 170.328 14.3499Z" fill="#FFF06B"/>
<path d="M162.473 32.7155C162.879 33.4722 167.096 33.4722 167.807 33.4722L168.018 33.4723C169.633 33.4747 173.478 33.7812 173.889 32.7155C174.304 31.6374 177.229 29.1923 177.202 27.9581C177.151 25.5538 176.307 24.9092 174.433 22.7972C171.916 19.9603 171.21 20.1765 167.196 19.9603C165.023 19.8432 162.594 20.1204 161.659 20.6045C160.725 21.0888 159.869 22.4109 159.107 23.7223C158.344 25.0337 157.051 28.1523 157.051 28.1523L161.439 30.3866C161.46 31.5634 161.567 32.266 162.473 32.7155Z" fill="#534BEF"/>
<path d="M168.654 20.15L168.311 16.8643C168.508 16.8643 169.096 16.5626 169.093 15.7689C169.09 15.1425 168.499 14.9426 168.139 15.1908C168.034 15.263 167.926 15.3374 167.798 15.337C167.198 15.3341 165.397 15.1688 164.492 13.3594C164.054 14.4546 163.812 15.7215 163.892 16.6949C164.011 18.1378 164.904 18.6648 165.225 18.6167V20.5881C166.703 21.2231 168.162 20.631 168.654 20.15Z" fill="#FFCDAE"/>
<path d="M167.634 17.0898C166.539 18.404 165.521 18.6232 165.225 18.6232L165.222 19.4388C166.563 19.2679 167.557 17.6355 167.634 17.0898Z" fill="#E5AE8C"/>
</g>
<path d="M176.864 19.1055C176.864 13.0303 171.939 8.10547 165.864 8.10547C159.789 8.10547 154.864 13.0303 154.864 19.1055C154.864 25.1806 159.789 30.1055 165.864 30.1055C171.939 30.1055 176.864 25.1806 176.864 19.1055Z" stroke="white" stroke-width="0.796367"/>
</g>
<g filter="url(#filter5_d_388_9094)">
<mask id="mask4_388_9094" style="mask-type:luminance" maskUnits="userSpaceOnUse" x="138" y="8" width="23" height="23">
<path d="M149.867 8.10547H149.695C143.668 8.10547 138.781 12.992 138.781 19.0198V19.1912C138.781 25.219 143.668 30.1055 149.695 30.1055H149.867C155.894 30.1055 160.781 25.219 160.781 19.1912V19.0198C160.781 12.992 155.894 8.10547 149.867 8.10547Z" fill="white"/>
</mask>
<g mask="url(#mask4_388_9094)">
<path d="M149.869 8.10547H149.697C143.67 8.10547 138.783 12.992 138.783 19.0198V19.1912C138.783 25.219 143.67 30.1055 149.697 30.1055H149.869C155.896 30.1055 160.783 25.219 160.783 19.1912V19.0198C160.783 12.992 155.896 8.10547 149.869 8.10547Z" fill="#FFFBDC"/>
<path fill-rule="evenodd" clip-rule="evenodd" d="M133.983 16.1694C134.04 15.9489 134.088 15.7618 134.068 15.5454C133.961 15.4765 133.757 15.5453 133.757 15.5453C133.723 15.5647 133.691 15.5868 133.66 15.6111C133.607 15.6629 133.542 15.6994 133.471 15.7173C133.403 15.717 133.336 15.6948 133.279 15.6537C133.223 15.6125 133.18 15.5543 133.157 15.4871C133.094 15.3549 133.065 15.2079 133.074 15.0607C133.082 14.9136 133.128 14.7712 133.205 14.648C133.283 14.5245 133.39 14.4245 133.516 14.3577C133.642 14.2908 133.783 14.2595 133.924 14.2667C133.984 14.2136 134.054 14.1736 134.13 14.1493C134.642 13.9814 135.247 14.4862 135.247 14.4862L135.244 14.2759C135.244 14.2759 134.997 13.6841 133.96 13.6454C133.804 13.6418 133.655 13.5788 133.541 13.4684C133.504 13.4367 133.474 13.3967 133.453 13.3514C133.433 13.306 133.422 13.2565 133.423 13.2064C133.44 12.9452 133.621 12.8892 134.269 12.9035C134.918 12.9177 135.543 13.1557 135.787 13.525C135.908 13.6933 136.016 13.8706 136.112 14.0551C136.112 14.0551 136.198 12.1627 136.205 12.0435C136.237 11.6981 136.409 11.4207 136.632 11.418C136.775 11.415 136.955 11.5239 136.935 11.9265C136.917 12.2768 137.165 15.8793 137.165 15.8793L137.167 16.0422L137.177 16.1445C137.341 16.6426 137.716 16.3416 137.926 16.1723L137.961 16.1445C138.002 16.1117 138.055 16.0661 138.115 16.0135C138.422 15.7463 138.931 15.3022 139.221 15.4786C139.433 15.6081 138.943 16.2535 138.584 16.7275C138.445 16.91 138.326 17.067 138.274 17.1595C138.16 17.3595 138.043 17.7877 137.927 18.2132C137.849 18.4961 137.772 18.7776 137.697 18.9904C137.622 19.2012 137.585 19.5508 137.57 19.9043L138.072 24.0083C138.072 24.0083 138.571 27.0276 140.381 28.0017C140.057 28.5562 139.586 29.0013 139.025 29.2834C138.464 29.5656 137.836 29.6728 137.218 29.5922C136.488 29.4979 135.81 29.1467 135.297 28.5965C134.784 28.0467 134.466 27.3306 134.396 26.5669L134.14 18.6426L134.118 18.4084C134.103 18.3526 134.083 18.2882 134.059 18.2159C133.952 17.8853 133.79 17.3852 133.866 16.7438C133.894 16.5165 133.941 16.3337 133.983 16.1694Z" fill="#B9722B"/>
<path d="M143.862 37.6383C144.392 38.6383 149.891 38.6383 150.819 38.6383C150.907 38.6383 150.999 38.6385 151.094 38.6385C153.199 38.6416 156.776 38.6467 157.311 37.2384C157.852 35.8135 156.956 33.6367 156.922 32.0057C156.902 31.0423 156.881 30.0805 156.98 29.1647V26.365C156.98 25.6318 157.088 24.703 157.182 23.9098C157.251 23.3186 157.311 22.8025 157.311 22.4989C157.182 22.0324 155.257 21.0666 150.023 20.7809C147.188 20.6261 144.021 20.9923 142.802 21.6323C141.583 22.2722 140.019 23.9656 139.026 25.6986C139.026 25.6986 139.036 23.7655 138.859 22.9656C138.682 22.1658 138.064 22.0991 138.064 22.0991L137.708 20.781C135.787 21.2477 134.089 20.6992 134.089 20.6992L134.023 21.8325C134.023 21.8325 132.533 22.4324 132.533 23.5655C132.533 24.6988 132.798 31.7645 134.454 33.1644C136.683 35.0477 140.459 34.4053 141.917 32.0057C141.944 33.5609 142.681 37.0441 143.862 37.6383Z" fill="#00D1FF"/>
<path d="M147.798 16.1056C147.847 15.0175 148.753 14.1752 149.822 14.2247C150.891 14.2741 151.718 15.1962 151.67 16.2843V17.5463L151.706 19.6571L151.67 21.1387C151.622 22.227 150.502 22.9999 149.433 22.9506C148.364 22.9012 147.537 21.979 147.585 20.8908L147.798 16.1056Z" fill="#B9722B"/>
<path fill-rule="evenodd" clip-rule="evenodd" d="M147.583 20.9935L147.786 16.4258L150.506 16.5514C150.974 16.5729 151.169 17.0866 151.21 17.3408L151.13 19.122C150.592 19.9735 148.54 21.5163 147.583 20.9935Z" fill="#A4580C"/>
<path d="M146.679 18.0493V13.7282C146.696 13.5366 146.914 13.4261 147.096 13.4888C148.274 13.8944 150 13.3086 150.58 13.3086C151.225 13.3086 151.598 13.6023 151.598 14.735V17.0004V18.0493L150.58 18.7205C147.727 20.4658 146.778 19.0003 146.679 18.0493Z" fill="#B9722B"/>
<path d="M146.15 14.2554C145.808 15.548 146.465 16.205 146.684 16.4L146.795 14.3193L146.889 13.8766C147.784 14.9638 150.522 14.1103 151.249 13.8033C151.249 13.8033 150.843 15.2235 151.607 16.4982C151.663 16.4738 151.86 16.3142 152.15 16.4C152.502 15.1378 152.691 13.3667 152.691 13.3667C152.691 13.3667 152.839 11.8737 151.831 11.9268C150.769 10.5263 148.766 10.8298 147.702 11.5096C146.637 12.1893 146.409 11.6355 145.965 11.9101C145.344 12.5806 145.621 13.9894 146.15 14.2554Z" fill="#1D1A27"/>
<path d="M151.925 17.3032C152.409 17.3032 152.801 16.9109 152.801 16.427C152.801 15.9431 152.409 15.5508 151.925 15.5508C151.441 15.5508 151.049 15.9431 151.049 16.427C151.049 16.9109 151.441 17.3032 151.925 17.3032Z" fill="#B9722B"/>
<path d="M147.182 17.6855C147.866 17.0908 149.296 17.0851 149.959 17.7452C151.048 17.9613 151.268 15.1137 151.268 15.1137L151.706 14.8945C151.772 15.7506 151.925 17.9613 151.391 18.8344C150.848 19.7237 149.797 20.3217 148.927 20.3217C147.969 20.3217 147.182 20.3886 146.722 19.3749C146.354 18.564 146.514 16.2889 146.667 15.7708V17.0851C146.667 17.5838 147.182 17.6855 147.182 17.6855Z" fill="#1D1A27"/>
<path d="M156.525 22.0467C158.59 21.7761 165.243 36.3622 165.801 37.888C166.358 39.414 165.678 40.4285 165.448 40.7275L165.801 41.3388C165.801 41.4767 165.905 41.6865 164.762 42.4418C163.62 43.1972 162.807 43.124 162.542 42.993L161.84 42.036C161.581 41.9948 160.413 42.0342 159.506 40.8121C159.464 40.7567 159.432 40.6952 159.406 40.6311L157.012 34.5483C157.224 35.3487 155.24 37.1533 154.257 37.4997L156.525 22.0467Z" fill="#00D1FF"/>
<path d="M151.72 19.6562C151.611 20.4955 150.281 21.2142 149.505 21.7824C149.09 22.0858 148.96 22.5707 148.929 22.9569C148.887 22.5015 148.77 21.911 148.451 21.6537C147.897 21.2061 147.685 21.2338 147.632 20.3885C147.387 20.4765 147.004 20.8545 146.844 21.8406C146.955 22.6038 147.454 23.2742 148.95 23.5559C150.714 23.5559 152.451 22.4249 152.719 21.4859C152.719 20.8946 152.256 19.6562 151.72 19.6562Z" fill="#00D1FF"/>
<path fill-rule="evenodd" clip-rule="evenodd" d="M147.341 14.7576C146.839 14.7576 146.432 15.165 146.432 15.6673C146.432 16.1698 146.839 16.5771 147.341 16.5771C147.844 16.5771 148.251 16.1698 148.251 15.6673C148.251 15.165 147.844 14.7576 147.341 14.7576ZM146.244 15.6673C146.244 15.0615 146.735 14.5703 147.341 14.5703C147.863 14.5703 148.299 14.9344 148.411 15.4222C148.478 15.3718 148.561 15.342 148.652 15.342C148.742 15.342 148.826 15.3718 148.893 15.4222C149.004 14.9343 149.441 14.5703 149.962 14.5703C150.568 14.5703 151.06 15.0615 151.06 15.6673C151.06 16.2733 150.568 16.7643 149.962 16.7643C149.382 16.7643 148.907 16.3143 148.868 15.7443C148.868 15.6255 148.77 15.5293 148.652 15.5293C148.533 15.5293 148.437 15.6255 148.437 15.7443C148.397 16.3143 147.921 16.7643 147.341 16.7643C146.735 16.7643 146.244 16.2733 146.244 15.6673ZM149.052 15.6673C149.052 15.165 149.46 14.7576 149.962 14.7576C150.465 14.7576 150.872 15.165 150.872 15.6673C150.872 16.1698 150.465 16.5771 149.962 16.5771C149.46 16.5771 149.052 16.1698 149.052 15.6673Z" fill="#FFF06B"/>
</g>
<path d="M149.867 8.10547H149.695C143.668 8.10547 138.781 12.992 138.781 19.0198V19.1912C138.781 25.219 143.668 30.1055 149.695 30.1055H149.867C155.894 30.1055 160.781 25.219 160.781 19.1912V19.0198C160.781 12.992 155.894 8.10547 149.867 8.10547Z" stroke="white" stroke-width="0.780285"/>
</g>
</g>
<defs>
<filter id="filter0_d_388_9094" x="0.495403" y="61.7415" width="147.256" height="116.523" filterUnits="userSpaceOnUse" color-interpolation-filters="sRGB">
<feFlood flood-opacity="0" result="BackgroundImageFix"/>
<feColorMatrix in="SourceAlpha" type="matrix" values="0 0 0 0 0 0 0 0 0 0 0 0 0 0 0 0 0 0 127 0" result="hardAlpha"/>
<feOffset dy="4.5596"/>
<feGaussianBlur stdDeviation="3.79966"/>
<feComposite in2="hardAlpha" operator="out"/>
<feColorMatrix type="matrix" values="0 0 0 0 0.175444 0 0 0 0 0.107708 0 0 0 0 0.5875 0 0 0 0.15 0"/>
<feBlend mode="normal" in2="BackgroundImageFix" result="effect1_dropShadow_388_9094"/>
<feBlend mode="normal" in="SourceGraphic" in2="effect1_dropShadow_388_9094" result="shape"/>
</filter>
<filter id="filter1_d_388_9094" x="78.6751" y="4.66731" width="147.256" height="114.503" filterUnits="userSpaceOnUse" color-interpolation-filters="sRGB">
<feFlood flood-opacity="0" result="BackgroundImageFix"/>
<feColorMatrix in="SourceAlpha" type="matrix" values="0 0 0 0 0 0 0 0 0 0 0 0 0 0 0 0 0 0 127 0" result="hardAlpha"/>
<feOffset dy="4.5596"/>
<feGaussianBlur stdDeviation="3.79966"/>
<feComposite in2="hardAlpha" operator="out"/>
<feColorMatrix type="matrix" values="0 0 0 0 0.175444 0 0 0 0 0.107708 0 0 0 0 0.5875 0 0 0 0.15 0"/>
<feBlend mode="normal" in2="BackgroundImageFix" result="effect1_dropShadow_388_9094"/>
<feBlend mode="normal" in="SourceGraphic" in2="effect1_dropShadow_388_9094" result="shape"/>
</filter>
<filter id="filter2_d_388_9094" x="178.572" y="0.596158" width="38.9149" height="38.9149" filterUnits="userSpaceOnUse" color-interpolation-filters="sRGB">
<feFlood flood-opacity="0" result="BackgroundImageFix"/>
<feColorMatrix in="SourceAlpha" type="matrix" values="0 0 0 0 0 0 0 0 0 0 0 0 0 0 0 0 0 0 127 0" result="hardAlpha"/>
<feOffset dy="0.948116"/>
<feGaussianBlur stdDeviation="4.02949"/>
<feComposite in2="hardAlpha" operator="out"/>
<feColorMatrix type="matrix" values="0 0 0 0 0.190972 0 0 0 0 0.307765 0 0 0 0 0.833333 0 0 0 0.17 0"/>
<feBlend mode="normal" in2="BackgroundImageFix" result="effect1_dropShadow_388_9094"/>
<feBlend mode="normal" in="SourceGraphic" in2="effect1_dropShadow_388_9094" result="shape"/>
</filter>
<filter id="filter3_d_388_9094" x="162.53" y="0.640253" width="38.816" height="38.816" filterUnits="userSpaceOnUse" color-interpolation-filters="sRGB">
<feFlood flood-opacity="0" result="BackgroundImageFix"/>
<feColorMatrix in="SourceAlpha" type="matrix" values="0 0 0 0 0 0 0 0 0 0 0 0 0 0 0 0 0 0 127 0" result="hardAlpha"/>
<feOffset dy="0.942759"/>
<feGaussianBlur stdDeviation="4.00672"/>
<feComposite in2="hardAlpha" operator="out"/>
<feColorMatrix type="matrix" values="0 0 0 0 0.190972 0 0 0 0 0.307765 0 0 0 0 0.833333 0 0 0 0.17 0"/>
<feBlend mode="normal" in2="BackgroundImageFix" result="effect1_dropShadow_388_9094"/>
<feBlend mode="normal" in="SourceGraphic" in2="effect1_dropShadow_388_9094" result="shape"/>
</filter>
<filter id="filter4_d_388_9094" x="146.407" y="0.596158" width="38.9139" height="38.9149" filterUnits="userSpaceOnUse" color-interpolation-filters="sRGB">
<feFlood flood-opacity="0" result="BackgroundImageFix"/>
<feColorMatrix in="SourceAlpha" type="matrix" values="0 0 0 0 0 0 0 0 0 0 0 0 0 0 0 0 0 0 127 0" result="hardAlpha"/>
<feOffset dy="0.948116"/>
<feGaussianBlur stdDeviation="4.02949"/>
<feComposite in2="hardAlpha" operator="out"/>
<feColorMatrix type="matrix" values="0 0 0 0 0.190972 0 0 0 0 0.307765 0 0 0 0 0.833333 0 0 0 0.17 0"/>
<feBlend mode="normal" in2="BackgroundImageFix" result="effect1_dropShadow_388_9094"/>
<feBlend mode="normal" in="SourceGraphic" in2="effect1_dropShadow_388_9094" result="shape"/>
</filter>
<filter id="filter5_d_388_9094" x="130.494" y="0.74757" width="38.5728" height="38.5737" filterUnits="userSpaceOnUse" color-interpolation-filters="sRGB">
<feFlood flood-opacity="0" result="BackgroundImageFix"/>
<feColorMatrix in="SourceAlpha" type="matrix" values="0 0 0 0 0 0 0 0 0 0 0 0 0 0 0 0 0 0 127 0" result="hardAlpha"/>
<feOffset dy="0.92897"/>
<feGaussianBlur stdDeviation="3.94812"/>
<feComposite in2="hardAlpha" operator="out"/>
<feColorMatrix type="matrix" values="0 0 0 0 0.190972 0 0 0 0 0.307765 0 0 0 0 0.833333 0 0 0 0.17 0"/>
<feBlend mode="normal" in2="BackgroundImageFix" result="effect1_dropShadow_388_9094"/>
<feBlend mode="normal" in="SourceGraphic" in2="effect1_dropShadow_388_9094" result="shape"/>
</filter>
</defs>
</svg>
