<svg width="32" height="32" viewBox="0 0 32 32" fill="none" xmlns="http://www.w3.org/2000/svg">
<path d="M16 12.332H4M16 5.33197L4 5.33197M28 19.6653H4M28 26.6653H4M26.2933 3.9453L21.1378 7.81197C20.7518 8.10146 20.5588 8.24621 20.4898 8.42365C20.4293 8.57908 20.4293 8.75152 20.4898 8.90695C20.5588 9.0844 20.7518 9.22914 21.1378 9.51864L26.2933 13.3853C26.8426 13.7973 27.1173 14.0033 27.3472 13.9985C27.5473 13.9943 27.7349 13.9005 27.8582 13.743C28 13.5619 28 13.2186 28 12.532V4.79864C28 4.112 28 3.76869 27.8582 3.58764C27.7349 3.43008 27.5473 3.33627 27.3472 3.33211C27.1173 3.32733 26.8426 3.53332 26.2933 3.9453Z" stroke="#635BFF" stroke-width="2" stroke-linecap="round" stroke-linejoin="round"/>
</svg>
