<svg width="28" height="29" viewBox="0 0 28 29" fill="none" xmlns="http://www.w3.org/2000/svg">
<path d="M7.10977 13.3997C7.03725 12.9324 6.99963 12.4536 6.99963 11.9661C6.99963 6.81149 11.2058 2.63281 16.3944 2.63281C21.5829 2.63281 25.7891 6.81149 25.7891 11.9661C25.7891 13.1306 25.5745 14.2452 25.1824 15.2731C25.1009 15.4865 25.0602 15.5933 25.0417 15.6766C25.0234 15.7592 25.0163 15.8173 25.0143 15.9018C25.0123 15.9872 25.0239 16.0812 25.047 16.2692L25.5167 20.0844C25.5676 20.4974 25.593 20.7039 25.5243 20.8541C25.4641 20.9856 25.3572 21.0901 25.2243 21.1472C25.0726 21.2125 24.8667 21.1823 24.455 21.1219L20.7389 20.5772C20.5448 20.5488 20.4478 20.5345 20.3595 20.535C20.272 20.5355 20.2116 20.542 20.126 20.56C20.0395 20.5782 19.9291 20.6195 19.7082 20.7023C18.6776 21.0883 17.5608 21.2995 16.3944 21.2995C15.9065 21.2995 15.4273 21.2625 14.9594 21.1913M8.90318 25.9661C12.3622 25.9661 15.1663 23.0933 15.1663 19.5495C15.1663 16.0057 12.3622 13.1328 8.90318 13.1328C5.44414 13.1328 2.64003 16.0057 2.64003 19.5495C2.64003 20.2618 2.75333 20.9471 2.96248 21.5873C3.05089 21.858 3.0951 21.9933 3.10961 22.0857C3.12475 22.1823 3.12741 22.2365 3.12177 22.334C3.11636 22.4274 3.09299 22.533 3.04624 22.7442L2.33301 25.9661L5.82694 25.489C6.01765 25.4629 6.113 25.4499 6.19627 25.4505C6.28395 25.4511 6.33048 25.4558 6.41647 25.473C6.49813 25.4892 6.61953 25.5321 6.86232 25.6178C7.50203 25.8436 8.18863 25.9661 8.90318 25.9661Z" stroke="#9C98E7" stroke-width="1.5" stroke-linecap="round" stroke-linejoin="round"/>
</svg>
