<svg width="28" height="29" viewBox="0 0 28 29" fill="none" xmlns="http://www.w3.org/2000/svg">
<path d="M10.5 13.1341L12.8333 15.4674L18.0833 10.2174M11.55 22.7008L13.2533 24.9719C13.5066 25.3096 13.6333 25.4785 13.7886 25.5389C13.9246 25.5918 14.0754 25.5918 14.2114 25.5389C14.3667 25.4785 14.4934 25.3096 14.7467 24.9719L16.45 22.7008C16.792 22.2448 16.963 22.0168 17.1716 21.8427C17.4497 21.6106 17.778 21.4464 18.1306 21.3632C18.395 21.3008 18.68 21.3008 19.25 21.3008C20.8808 21.3008 21.6962 21.3008 22.3394 21.0344C23.197 20.6791 23.8783 19.9978 24.2336 19.1402C24.5 18.497 24.5 17.6816 24.5 16.0508V9.40078C24.5 7.4406 24.5 6.46051 24.1185 5.71181C23.783 5.05325 23.2475 4.51782 22.589 4.18226C21.8403 3.80078 20.8602 3.80078 18.9 3.80078H9.1C7.13982 3.80078 6.15972 3.80078 5.41103 4.18226C4.75247 4.51782 4.21703 5.05325 3.88148 5.71181C3.5 6.46051 3.5 7.4406 3.5 9.40078V16.0508C3.5 17.6816 3.5 18.497 3.76642 19.1402C4.12165 19.9978 4.80301 20.6791 5.66061 21.0344C6.30381 21.3008 7.1192 21.3008 8.75 21.3008C9.32001 21.3008 9.60501 21.3008 9.86942 21.3632C10.222 21.4464 10.5503 21.6106 10.8284 21.8427C11.037 22.0168 11.208 22.2448 11.55 22.7008Z" stroke="#9C98E7" stroke-width="1.5" stroke-linecap="round" stroke-linejoin="round"/>
</svg>
