<svg width="32" height="32" viewBox="0 0 32 32" fill="none" xmlns="http://www.w3.org/2000/svg">
<path d="M23.9989 24.9589C24.3289 24.9861 24.6627 25 24.9998 25C26.3976 25 27.7395 24.761 28.987 24.3217C28.9955 24.2156 28.9998 24.1083 28.9998 24C28.9998 21.7909 27.2089 20 24.9998 20C24.163 20 23.3862 20.257 22.744 20.6963M23.9989 24.9589C23.999 24.9726 23.999 24.9863 23.999 25C23.999 25.3 23.9825 25.5961 23.9503 25.8875C21.608 27.2315 18.8932 28 15.999 28C13.1048 28 10.3901 27.2315 8.0477 25.8875C8.01553 25.5961 7.99902 25.3 7.99902 25C7.99902 24.9863 7.99906 24.9727 7.99913 24.959M23.9989 24.9589C23.991 23.3901 23.5316 21.9282 22.744 20.6963M22.744 20.6963C21.3228 18.4736 18.833 17 15.999 17C13.1654 17 10.6759 18.4732 9.25461 20.6955M9.25461 20.6955C8.61266 20.2567 7.8363 20 7 20C4.79086 20 3 21.7909 3 24C3 24.1083 3.0043 24.2156 3.01275 24.3217C4.26026 24.761 5.60222 25 7 25C7.33646 25 7.66968 24.9862 7.99913 24.959M9.25461 20.6955C8.46663 21.9275 8.007 23.3899 7.99913 24.959M19.999 9C19.999 11.2091 18.2082 13 15.999 13C13.7899 13 11.999 11.2091 11.999 9C11.999 6.79086 13.7899 5 15.999 5C18.2082 5 19.999 6.79086 19.999 9ZM27.999 13C27.999 14.6569 26.6559 16 24.999 16C23.3422 16 21.999 14.6569 21.999 13C21.999 11.3431 23.3422 10 24.999 10C26.6559 10 27.999 11.3431 27.999 13ZM9.99902 13C9.99902 14.6569 8.65588 16 6.99902 16C5.34217 16 3.99902 14.6569 3.99902 13C3.99902 11.3431 5.34217 10 6.99902 10C8.65588 10 9.99902 11.3431 9.99902 13Z" stroke="#635BFF" stroke-width="2" stroke-linecap="round" stroke-linejoin="round"/>
</svg>
