<svg width="26" height="26" viewBox="0 0 26 26" fill="none" xmlns="http://www.w3.org/2000/svg">
<g id="Group">
<path id="Vector" d="M16 20.5H25M20.5 25V16M3.4 1H7.6C7.91517 1 8.22726 1.06208 8.51844 1.18269C8.80962 1.3033 9.0742 1.48008 9.29706 1.70294C9.51992 1.9258 9.6967 2.19038 9.81731 2.48156C9.93792 2.77274 10 3.08483 10 3.4V7.6C10 7.91517 9.93792 8.22726 9.81731 8.51844C9.6967 8.80962 9.51992 9.0742 9.29706 9.29706C9.0742 9.51992 8.80962 9.6967 8.51844 9.81731C8.22726 9.93792 7.91517 10 7.6 10H3.4C2.76348 10 2.15303 9.74714 1.70294 9.29706C1.25286 8.84697 1 8.23652 1 7.6V3.4C1 2.76348 1.25286 2.15303 1.70294 1.70294C2.15303 1.25286 2.76348 1 3.4 1ZM3.4 16H7.6C8.23652 16 8.84697 16.2529 9.29706 16.7029C9.74714 17.153 10 17.7635 10 18.4V22.6C10 23.2365 9.74714 23.847 9.29706 24.2971C8.84697 24.7471 8.23652 25 7.6 25H3.4C2.76348 25 2.15303 24.7471 1.70294 24.2971C1.25286 23.847 1 23.2365 1 22.6V18.4C1 17.7635 1.25286 17.153 1.70294 16.7029C2.15303 16.2529 2.76348 16 3.4 16ZM18.4 1H22.6C23.2365 1 23.847 1.25286 24.2971 1.70294C24.7471 2.15303 25 2.76348 25 3.4V7.6C25 8.23652 24.7471 8.84697 24.2971 9.29706C23.847 9.74714 23.2365 10 22.6 10H18.4C17.7635 10 17.153 9.74714 16.7029 9.29706C16.2529 8.84697 16 8.23652 16 7.6V3.4C16 2.76348 16.2529 2.15303 16.7029 1.70294C17.153 1.25286 17.7635 1 18.4 1Z" stroke="#6559FF" stroke-width="2" stroke-miterlimit="10" stroke-linecap="round" stroke-linejoin="round"/>
</g>
</svg>
