<svg width="24" height="26" viewBox="0 0 24 26" fill="none" xmlns="http://www.w3.org/2000/svg">
<g id="Group">
<path id="Vector" d="M21.2959 14.1987C22.1387 12.9872 22.6475 11.5751 22.7711 10.1045C22.8946 8.63385 22.6286 7.15661 21.9998 5.82147C21.371 4.48633 20.4015 3.34039 19.189 2.49902C17.9765 1.65764 16.5638 1.15051 15.093 1.02868C13.6223 0.906845 12.1453 1.1746 10.8109 1.80501C9.47653 2.43541 8.33174 3.40621 7.49179 4.61968C6.65185 5.83315 6.14638 7.24648 6.02628 8.7174C5.90618 10.1883 6.17568 11.6649 6.80765 12.9986" stroke="white" stroke-width="2" stroke-linecap="round" stroke-linejoin="round"/>
<path id="Vector_2" d="M1.19934 15.3989H4.07371C4.42656 15.3989 4.7746 15.4781 5.09024 15.6317L7.54096 16.8174C7.8566 16.9699 8.20464 17.0491 8.55869 17.0491H9.80925C11.019 17.0491 12.0007 17.9984 12.0007 19.1697C12.0007 19.2177 11.9683 19.2585 11.9215 19.2718L8.87193 20.1155C8.32472 20.2666 7.74122 20.2137 7.23012 19.9666L4.61018 18.6993M12.0007 18.3992L17.513 16.7058C17.9929 16.5586 18.5071 16.5667 18.9821 16.729C19.4571 16.8912 19.8687 17.1994 20.1582 17.6095C20.601 18.2216 20.421 19.1001 19.7753 19.4722L10.7562 24.6772C10.4742 24.8404 10.1619 24.9445 9.83834 24.9831C9.51481 25.0216 9.18681 24.9939 8.87433 24.9017L1.19934 22.6238M14.6411 12.9985V6.0376L12.0007 8.67797" stroke="white" stroke-width="2" stroke-linecap="round" stroke-linejoin="round"/>
</g>
</svg>
