<svg width="26" height="16" viewBox="0 0 26 16" fill="none" xmlns="http://www.w3.org/2000/svg">
<g id="Group 2">
<path id="Vector" d="M5.58552 6.76885C5.65254 6.75767 5.73073 6.75767 5.79775 6.76885C7.33928 6.71296 8.568 5.45072 8.568 3.88686C8.568 2.28949 7.28345 1.00488 5.68605 1.00488C4.08868 1.00488 2.80408 2.30065 2.80408 3.88686C2.81525 5.45072 4.044 6.71296 5.58552 6.76885Z" stroke="#534BEF" stroke-linecap="round" stroke-linejoin="round"/>
<path id="Vector_2" d="M6.7355 14.9012C5.20513 15.1581 3.51839 14.89 2.33432 14.0969C0.759327 13.0469 0.759327 11.3266 2.33432 10.2766C3.52956 9.48352 5.23864 9.21544 6.76897 9.48352" stroke="#534BEF" stroke-linecap="round" stroke-linejoin="round"/>
<path id="Vector_3" d="M13.0009 6.76397C12.9339 6.75279 12.8557 6.75279 12.7887 6.76397C11.2472 6.70808 10.0184 5.44584 10.0184 3.88198C10.0184 2.2846 11.303 1 12.9004 1C14.4977 1 15.7823 2.29577 15.7823 3.88198C15.7712 5.44584 14.5424 6.71926 13.0009 6.76397Z" stroke="#534BEF" stroke-linecap="round" stroke-linejoin="round"/>
<path id="Vector_4" d="M9.7496 10.2835C8.17461 11.3336 8.17461 13.0538 9.7496 14.1038C11.5369 15.2991 14.4636 15.2991 16.2508 14.1038C17.8258 13.0538 17.8258 11.3336 16.2508 10.2835C14.4747 9.0995 11.5369 9.0995 9.7496 10.2835Z" stroke="#534BEF" stroke-linecap="round" stroke-linejoin="round"/>
<path id="Vector_5" d="M20.4138 6.76885C20.3468 6.75767 20.2686 6.75767 20.2016 6.76885C18.6601 6.71296 17.4313 5.45072 17.4313 3.88686C17.4313 2.28949 18.7159 1.00488 20.3133 1.00488C21.9106 1.00488 23.1953 2.30065 23.1953 3.88686C23.1841 5.45072 21.9553 6.71296 20.4138 6.76885Z" stroke="#534BEF" stroke-linecap="round" stroke-linejoin="round"/>
<path id="Vector_6" d="M19.2646 14.9012C20.7949 15.1581 22.4817 14.89 23.6657 14.0969C25.2408 13.0469 25.2408 11.3266 23.6657 10.2766C22.4705 9.48352 20.7614 9.21544 19.2311 9.48352" stroke="#534BEF" stroke-linecap="round" stroke-linejoin="round"/>
</g>
</svg>
