<svg width="24" height="26" viewBox="0 0 24 26" fill="none" xmlns="http://www.w3.org/2000/svg">
<g id="Group">
<path id="Vector" d="M21.2956 14.1987C22.1384 12.9872 22.6471 11.5751 22.7707 10.1045C22.8943 8.63385 22.6283 7.15661 21.9994 5.82147C21.3706 4.48633 20.4012 3.34039 19.1887 2.49902C17.9762 1.65764 16.5634 1.15051 15.0927 1.02868C13.6219 0.906845 12.145 1.1746 10.8106 1.80501C9.47617 2.43541 8.33138 3.40621 7.49143 4.61968C6.65148 5.83315 6.14602 7.24648 6.02591 8.7174C5.90581 10.1883 6.17531 11.6649 6.80729 12.9986" stroke="#6559FF" stroke-width="2" stroke-linecap="round" stroke-linejoin="round"/>
<path id="Vector_2" d="M1.19922 15.4003H4.07359C4.42643 15.4003 4.77448 15.4795 5.09012 15.6331L7.54083 16.8189C7.85648 16.9713 8.20452 17.0505 8.55856 17.0505H9.80913C11.0189 17.0505 12.0006 17.9999 12.0006 19.1712C12.0006 19.2192 11.9682 19.26 11.9214 19.2732L8.8718 20.1169C8.3246 20.2681 7.7411 20.2152 7.22999 19.9681L4.61006 18.7007M12.0006 18.4007L17.5129 16.7073C17.9928 16.56 18.5069 16.5681 18.982 16.7304C19.457 16.8927 19.8686 17.2009 20.1581 17.611C20.6009 18.2231 20.4209 19.1016 19.7752 19.4736L10.756 24.6787C10.474 24.8419 10.1617 24.9459 9.83821 24.9845C9.51469 25.0231 9.18669 24.9954 8.87421 24.9031L1.19922 22.6252M14.641 13V6.03906L12.0006 8.67943" stroke="#6559FF" stroke-width="2" stroke-linecap="round" stroke-linejoin="round"/>
</g>
</svg>
