<svg width="28" height="28" viewBox="0 0 28 28" fill="none" xmlns="http://www.w3.org/2000/svg">
<path d="M7.11074 13.099C7.03823 12.6316 7.00061 12.1529 7.00061 11.6654C7.00061 6.51071 11.2068 2.33203 16.3953 2.33203C21.5839 2.33203 25.7901 6.51071 25.7901 11.6654C25.7901 12.8298 25.5754 13.9444 25.1833 14.9723C25.1019 15.1858 25.0612 15.2925 25.0427 15.3758C25.0244 15.4584 25.0173 15.5165 25.0153 15.6011C25.0133 15.6864 25.0249 15.7804 25.048 15.9684L25.5177 19.7836C25.5685 20.1967 25.594 20.4032 25.5253 20.5533C25.4651 20.6848 25.3581 20.7893 25.2253 20.8465C25.0736 20.9117 24.8677 20.8815 24.456 20.8211L20.7398 20.2764C20.5458 20.248 20.4488 20.2338 20.3604 20.2343C20.273 20.2348 20.2125 20.2412 20.127 20.2592C20.0405 20.2774 19.9301 20.3188 19.7091 20.4015C18.6786 20.7875 17.5618 20.9987 16.3953 20.9987C15.9075 20.9987 15.4283 20.9618 14.9604 20.8905M8.90416 25.6654C12.3632 25.6654 15.1673 22.7925 15.1673 19.2487C15.1673 15.7049 12.3632 12.832 8.90416 12.832C5.44511 12.832 2.641 15.7049 2.641 19.2487C2.641 19.9611 2.75431 20.6463 2.96346 21.2865C3.05187 21.5572 3.09608 21.6925 3.11058 21.785C3.12573 21.8815 3.12838 21.9357 3.12274 22.0332C3.11734 22.1266 3.09397 22.2322 3.04722 22.4434L2.33398 25.6654L5.82792 25.1882C6.01863 25.1621 6.11398 25.1491 6.19725 25.1497C6.28492 25.1503 6.33146 25.155 6.41744 25.1722C6.49911 25.1885 6.6205 25.2313 6.8633 25.317C7.50301 25.5428 8.18961 25.6654 8.90416 25.6654Z" stroke="#EE3CD1" stroke-width="1.5" stroke-linecap="round" stroke-linejoin="round"/>
</svg>
