<svg width="32" height="32" viewBox="0 0 32 32" fill="none" xmlns="http://www.w3.org/2000/svg">
<path d="M10.666 28V9.33333C10.666 8.09337 10.666 7.47339 10.8023 6.96472C11.1722 5.58436 12.2504 4.50617 13.6307 4.1363C14.1394 4 14.7594 4 15.9993 4C17.2393 4 17.8593 4 18.368 4.1363C19.7483 4.50617 20.8265 5.58436 21.1964 6.96472C21.3327 7.47339 21.3327 8.09337 21.3327 9.33333V28M6.93268 28H25.066C26.5595 28 27.3062 28 27.8767 27.7094C28.3784 27.4537 28.7864 27.0457 29.042 26.544C29.3327 25.9735 29.3327 25.2268 29.3327 23.7333V13.6C29.3327 12.1065 29.3327 11.3598 29.042 10.7894C28.7864 10.2876 28.3784 9.87965 27.8767 9.62398C27.3062 9.33333 26.5595 9.33333 25.066 9.33333H6.93268C5.43921 9.33333 4.69247 9.33333 4.12204 9.62398C3.62028 9.87965 3.21233 10.2876 2.95666 10.7894C2.66602 11.3598 2.66602 12.1065 2.66602 13.6V23.7333C2.66602 25.2268 2.66602 25.9735 2.95666 26.544C3.21233 27.0457 3.62028 27.4537 4.12204 27.7094C4.69247 28 5.43921 28 6.93268 28Z" stroke="#635BFF" stroke-width="2" stroke-linecap="round" stroke-linejoin="round"/>
</svg>
