<svg width="28" height="29" viewBox="0 0 28 29" fill="none" xmlns="http://www.w3.org/2000/svg">
<path d="M16.3909 7.29948C17.5305 7.52181 18.5777 8.07911 19.3987 8.90007C20.2196 9.72103 20.777 10.7683 20.9993 11.9078M16.3909 2.63281C18.7584 2.89582 20.9661 3.95602 22.6516 5.63932C24.337 7.32263 25.4 9.52899 25.6659 11.8961M11.9308 16.4731C10.5289 15.0712 9.42199 13.4861 8.61 11.7949C8.54015 11.6494 8.50523 11.5767 8.4784 11.4847C8.38306 11.1576 8.45154 10.756 8.64989 10.4789C8.7057 10.401 8.77238 10.3343 8.90575 10.201C9.31362 9.79308 9.51756 9.58915 9.65089 9.38407C10.1537 8.6107 10.1537 7.61369 9.65089 6.84032C9.51756 6.63524 9.31362 6.43131 8.90575 6.02343L8.6784 5.79608C8.05838 5.17607 7.74838 4.86606 7.41543 4.69766C6.75328 4.36274 5.9713 4.36274 5.30915 4.69766C4.9762 4.86606 4.66619 5.17607 4.04618 5.79608L3.86227 5.97999C3.24438 6.59788 2.93543 6.90683 2.69948 7.32687C2.43765 7.79296 2.2494 8.51687 2.25099 9.05146C2.25242 9.53323 2.34587 9.86249 2.53278 10.521C3.53725 14.06 5.43247 17.3994 8.21844 20.1854C11.0044 22.9713 14.3438 24.8666 17.8828 25.871C18.5413 26.0579 18.8706 26.1514 19.3524 26.1528C19.8869 26.1544 20.6109 25.9662 21.0769 25.7043C21.497 25.4684 21.8059 25.1594 22.4238 24.5415L22.6077 24.3576C23.2277 23.7376 23.5378 23.4276 23.7062 23.0947C24.0411 22.4325 24.0411 21.6505 23.7062 20.9884C23.5378 20.6554 23.2277 20.3454 22.6077 19.7254L22.3804 19.4981C21.9725 19.0902 21.7686 18.8863 21.5635 18.7529C20.7901 18.2501 19.7931 18.2501 19.0197 18.7529C18.8147 18.8863 18.6107 19.0902 18.2029 19.4981C18.0695 19.6314 18.0028 19.6981 17.9249 19.7539C17.6479 19.9523 17.2462 20.0208 16.9191 19.9254C16.8271 19.8986 16.7544 19.8637 16.6089 19.7938C14.9177 18.9818 13.3326 17.8749 11.9308 16.4731Z" stroke="#9C98E7" stroke-width="1.5" stroke-linecap="round" stroke-linejoin="round"/>
</svg>
