<svg width="28" height="28" viewBox="0 0 28 28" fill="none" xmlns="http://www.w3.org/2000/svg">
<path d="M16.3919 6.9987C17.5314 7.22102 18.5787 7.77833 19.3997 8.59929C20.2206 9.42025 20.7779 10.4675 21.0003 11.607M16.3919 2.33203C18.7594 2.59504 20.9671 3.65524 22.6525 5.33854C24.338 7.02184 25.4009 9.22821 25.6669 11.5954M11.9317 16.1723C10.5299 14.7704 9.42297 13.1854 8.61097 11.4941C8.54113 11.3487 8.50621 11.2759 8.47938 11.1839C8.38403 10.8568 8.45252 10.4552 8.65086 10.1782C8.70668 10.1002 8.77336 10.0335 8.90673 9.90017C9.3146 9.4923 9.51854 9.28836 9.65187 9.08329C10.1547 8.30992 10.1547 7.31291 9.65187 6.53953C9.51854 6.33446 9.3146 6.13052 8.90672 5.72265L8.67938 5.4953C8.05936 4.87529 7.74935 4.56528 7.41641 4.39688C6.75425 4.06196 5.97228 4.06196 5.31012 4.39688C4.97718 4.56528 4.66717 4.87529 4.04715 5.4953L3.86325 5.67921C3.24535 6.2971 2.93641 6.60605 2.70045 7.02609C2.43863 7.49218 2.25037 8.21608 2.25196 8.75068C2.2534 9.23245 2.34685 9.56171 2.53376 10.2202C3.53822 13.7592 5.43344 17.0986 8.21942 19.8846C11.0054 22.6706 14.3448 24.5658 17.8838 25.5703C18.5423 25.7572 18.8716 25.8506 19.3533 25.852C19.8879 25.8536 20.6118 25.6654 21.0779 25.4036C21.498 25.1676 21.8069 24.8587 22.4248 24.2408L22.6087 24.0569C23.2287 23.4368 23.5387 23.1268 23.7071 22.7939C24.042 22.1317 24.042 21.3498 23.7071 20.6876C23.5387 20.3547 23.2287 20.0446 22.6087 19.4246L22.3814 19.1973C21.9735 18.7894 21.7695 18.5855 21.5645 18.4521C20.7911 17.9493 19.7941 17.9493 19.0207 18.4521C18.8156 18.5855 18.6117 18.7894 18.2038 19.1973C18.0705 19.3306 18.0038 19.3973 17.9258 19.4531C17.6488 19.6515 17.2472 19.72 16.9201 19.6246C16.8281 19.5978 16.7553 19.5629 16.6099 19.493C14.9187 18.681 13.3336 17.5741 11.9317 16.1723Z" stroke="#EE3CD1" stroke-width="1.5" stroke-linecap="round" stroke-linejoin="round"/>
</svg>
