<svg width="52" height="52" viewBox="0 0 52 52" fill="none" xmlns="http://www.w3.org/2000/svg">
<rect opacity="0.05" width="52" height="52" rx="3.71429" fill="#06135B"/>
<g clip-path="url(#clip0_859_8244)">
<path d="M32.166 37.2585C31.1631 37.2585 30.0117 36.9985 28.7488 36.5157C26.2231 35.5128 23.4374 33.5814 20.9488 31.0928C18.4602 28.6042 16.5288 25.8185 15.526 23.2557C14.4117 20.5071 14.5231 18.2414 15.8231 16.9785C15.8602 16.9414 15.9345 16.9042 15.9717 16.8671L19.0917 15.0099C19.8717 14.5642 20.8745 14.7871 21.3945 15.5299L23.586 18.7985C24.106 19.5785 23.8831 20.6185 23.1402 21.1385L21.8031 22.0671C22.7688 23.6271 25.5174 27.4528 29.9002 30.2014L30.7174 29.0128C31.3488 28.1214 32.3517 27.8614 33.1688 28.4185L36.4374 30.6099C37.1802 31.1299 37.4031 32.1328 36.9574 32.9128L35.1002 36.0328C35.0631 36.1071 35.026 36.1442 34.9888 36.1814C34.3202 36.8871 33.3545 37.2585 32.166 37.2585ZM16.9374 18.2414C16.2317 19.0214 16.2688 20.6185 17.086 22.6614C18.0145 25.0014 19.7974 27.5642 22.1374 29.9042C24.4402 32.2071 27.0402 33.9899 29.3431 34.9185C31.3488 35.7357 32.946 35.7728 33.7631 35.0671L35.546 32.0214C35.546 31.9842 35.546 31.9842 35.546 31.9471L32.2774 29.7557C32.2774 29.7557 32.2031 29.7928 32.1288 29.9042L31.3117 31.0928C30.7917 31.8357 29.7888 32.0585 29.046 31.5757C24.366 28.6785 21.4688 24.6299 20.4288 22.9957C19.946 22.2157 20.1317 21.2128 20.8745 20.6928L22.2117 19.7642V19.7271L20.0202 16.4585C20.0202 16.4214 19.9831 16.4214 19.946 16.4585L16.9374 18.2414Z" fill="white"/>
<path d="M35.8796 24.7006C35.4339 24.7006 35.0996 24.3663 35.0625 23.9206C34.7653 20.1691 31.6825 17.1606 27.8939 16.9006C27.4482 16.8634 27.0768 16.492 27.1139 16.0091C27.151 15.5634 27.5225 15.192 28.0053 15.2291C32.611 15.5263 36.3625 19.1663 36.7339 23.772C36.771 24.2177 36.4367 24.6263 35.9539 24.6634C35.9539 24.7006 35.9167 24.7006 35.8796 24.7006Z" fill="white"/>
<path d="M32.203 25.0397C31.7944 25.0397 31.423 24.7426 31.3858 24.2968C31.163 22.2911 29.603 20.7311 27.5972 20.4711C27.1515 20.434 26.8172 19.9883 26.8544 19.5426C26.8915 19.0968 27.3372 18.7626 27.783 18.7997C30.5687 19.134 32.723 21.2883 33.0572 24.074C33.0944 24.5197 32.7972 24.9283 32.3144 25.0026C32.2401 25.0397 32.203 25.0397 32.203 25.0397Z" fill="white"/>
</g>
<defs>
<clipPath id="clip0_859_8244">
<rect width="23.7714" height="23.7714" fill="white" transform="translate(14.1143 14.1172)"/>
</clipPath>
</defs>
</svg>
