<svg width="24" height="24" viewBox="0 0 24 24" fill="none" xmlns="http://www.w3.org/2000/svg">
<g clip-path="url(#clip0_879_8614)">
<path d="M14.8448 17.1944C14.3819 17.1944 13.8505 17.0744 13.2676 16.8516C12.1019 16.3887 10.8162 15.4973 9.66763 14.3487C8.51906 13.2001 7.62763 11.9144 7.16478 10.7316C6.65049 9.46301 6.70192 8.41729 7.30192 7.83443C7.31906 7.81729 7.35335 7.80015 7.37049 7.783L8.81049 6.92586C9.17049 6.72015 9.63335 6.823 9.87335 7.16586L10.8848 8.67443C11.1248 9.03443 11.0219 9.51443 10.6791 9.75443L10.0619 10.183C10.5076 10.903 11.7762 12.6687 13.7991 13.9373L14.1762 13.3887C14.4676 12.9773 14.9305 12.8573 15.3076 13.1144L16.8162 14.1259C17.1591 14.3659 17.2619 14.8287 17.0562 15.1887L16.1991 16.6287C16.1819 16.663 16.1648 16.6802 16.1476 16.6973C15.8391 17.023 15.3933 17.1944 14.8448 17.1944ZM7.8162 8.41729C7.49049 8.77729 7.50763 9.51443 7.88478 10.4573C8.31335 11.5373 9.1362 12.7201 10.2162 13.8001C11.2791 14.863 12.4791 15.6859 13.5419 16.1144C14.4676 16.4916 15.2048 16.5087 15.5819 16.183L16.4048 14.7773C16.4048 14.7601 16.4048 14.7601 16.4048 14.743L14.8962 13.7316C14.8962 13.7316 14.8619 13.7487 14.8276 13.8001L14.4505 14.3487C14.2105 14.6916 13.7476 14.7944 13.4048 14.5716C11.2448 13.2344 9.90763 11.3659 9.42763 10.6116C9.20478 10.2516 9.29049 9.78872 9.63335 9.54872L10.2505 9.12015V9.10301L9.23906 7.59443C9.23906 7.57729 9.22192 7.57729 9.20478 7.59443L7.8162 8.41729Z" fill="#534BEF"/>
<path d="M16.5596 11.396C16.3539 11.396 16.1996 11.2418 16.1825 11.036C16.0453 9.30462 14.6225 7.91605 12.8739 7.79605C12.6682 7.77891 12.4967 7.60748 12.5139 7.38462C12.531 7.17891 12.7025 7.00748 12.9253 7.02462C15.051 7.16176 16.7825 8.84176 16.9539 10.9675C16.971 11.1732 16.8167 11.3618 16.5939 11.3789C16.5939 11.396 16.5767 11.396 16.5596 11.396Z" fill="#534BEF"/>
<path d="M14.8625 11.5493C14.6739 11.5493 14.5025 11.4121 14.4853 11.2064C14.3825 10.2807 13.6625 9.5607 12.7367 9.4407C12.531 9.42356 12.3767 9.21784 12.3939 9.01213C12.411 8.80641 12.6167 8.65213 12.8225 8.66927C14.1082 8.82356 15.1025 9.81784 15.2567 11.1036C15.2739 11.3093 15.1367 11.4978 14.9139 11.5321C14.8796 11.5493 14.8625 11.5493 14.8625 11.5493Z" fill="#534BEF"/>
</g>
<defs>
<clipPath id="clip0_879_8614">
<rect width="10.9714" height="10.9714" fill="white" transform="translate(6.51367 6.51562)"/>
</clipPath>
</defs>
</svg>
