<svg width="40" height="40" viewBox="0 0 40 40" fill="none" xmlns="http://www.w3.org/2000/svg">
<rect width="40" height="40" rx="8" fill="#EE3CD1"/>
<path d="M12.5 30V25M12.5 15V10M10 12.5H15M10 27.5H15M21 11L19.2658 15.5089C18.9838 16.2421 18.8428 16.6087 18.6235 16.9171C18.4292 17.1904 18.1904 17.4292 17.9171 17.6235C17.6087 17.8428 17.2421 17.9838 16.5089 18.2658L12 20L16.5089 21.7342C17.2421 22.0162 17.6087 22.1572 17.9171 22.3765C18.1904 22.5708 18.4292 22.8096 18.6235 23.0829C18.8428 23.3913 18.9838 23.7579 19.2658 24.4911L21 29L22.7342 24.4911C23.0162 23.7579 23.1572 23.3913 23.3765 23.0829C23.5708 22.8096 23.8096 22.5708 24.0829 22.3765C24.3913 22.1572 24.7579 22.0162 25.4911 21.7342L30 20L25.4911 18.2658C24.7579 17.9838 24.3913 17.8428 24.0829 17.6235C23.8096 17.4292 23.5708 17.1904 23.3765 16.9171C23.1572 16.6087 23.0162 16.2421 22.7342 15.5089L21 11Z" stroke="white" stroke-width="2" stroke-linecap="round" stroke-linejoin="round"/>
</svg>
