<svg width="64" height="65" viewBox="0 0 64 65" fill="none" xmlns="http://www.w3.org/2000/svg">
<rect y="0.800781" width="64" height="64" rx="8" fill="white"/>
<path fill-rule="evenodd" clip-rule="evenodd" d="M19 32.8008C19 25.6208 24.82 19.8008 32 19.8008C39.18 19.8008 45 25.6208 45 32.8008C45 39.9808 39.18 45.8008 32 45.8008C24.82 45.8008 19 39.9808 19 32.8008ZM34.1707 27.5781C32.984 26.5421 31.016 26.5421 29.8307 27.5781C29.631 27.7528 29.3702 27.841 29.1055 27.8234C28.8409 27.8058 28.594 27.6837 28.4193 27.4841C28.2446 27.2845 28.1564 27.0237 28.174 26.759C28.1917 26.4943 28.3137 26.2475 28.5133 26.0728C30.452 24.3768 33.548 24.3768 35.4867 26.0728C37.504 27.8381 37.504 30.7634 35.4867 32.5288C35.1493 32.823 34.7739 33.0705 34.3707 33.2648C33.4693 33.7021 33 34.2968 33 34.8008V35.8008C33 36.066 32.8946 36.3204 32.7071 36.5079C32.5196 36.6954 32.2652 36.8008 32 36.8008C31.7348 36.8008 31.4804 36.6954 31.2929 36.5079C31.1054 36.3204 31 36.066 31 35.8008V34.8008C31 33.0954 32.4133 31.9914 33.5 31.4648C33.7427 31.3474 33.968 31.1994 34.1707 31.0234C35.2773 30.0541 35.2773 28.5474 34.1707 27.5781ZM32 40.8008C32.2652 40.8008 32.5196 40.6954 32.7071 40.5079C32.8946 40.3204 33 40.066 33 39.8008C33 39.5356 32.8946 39.2812 32.7071 39.0937C32.5196 38.9061 32.2652 38.8008 32 38.8008C31.7348 38.8008 31.4804 38.9061 31.2929 39.0937C31.1054 39.2812 31 39.5356 31 39.8008C31 40.066 31.1054 40.3204 31.2929 40.5079C31.4804 40.6954 31.7348 40.8008 32 40.8008Z" fill="#534BEF"/>
<rect x="0.5" y="1.30078" width="63" height="63" rx="15.5" stroke="#F2F3F8"/>
</svg>
