<svg width="19" height="25" viewBox="0 0 19 25" fill="none" xmlns="http://www.w3.org/2000/svg">
<path d="M14.7613 9.02012C14.9017 9.16075 14.9806 9.35137 14.9806 9.55012C14.9806 9.74887 14.9017 9.9395 14.7613 10.0801L8.40329 16.4401C8.31507 16.5284 8.21031 16.5985 8.095 16.6462C7.9797 16.694 7.85611 16.7186 7.73129 16.7186C7.60648 16.7186 7.48289 16.694 7.36758 16.6462C7.25227 16.5985 7.14752 16.5284 7.05929 16.4401L4.20129 13.5801C4.06881 13.4379 3.99669 13.2499 4.00012 13.0556C4.00355 12.8613 4.08226 12.6759 4.21967 12.5385C4.35708 12.4011 4.54247 12.3224 4.73677 12.3189C4.93107 12.3155 5.11912 12.3876 5.26129 12.5201L7.73129 14.9901L13.7013 9.02012C13.8419 8.87967 14.0325 8.80078 14.2313 8.80078C14.43 8.80078 14.6207 8.87967 14.7613 9.02012Z" fill="#0CAF91"/>
</svg>
