<svg width="19" height="24" viewBox="0 0 19 24" fill="none" xmlns="http://www.w3.org/2000/svg">
<path d="M14.7808 8.21934C14.9213 8.35997 15.0002 8.55059 15.0002 8.74934C15.0002 8.94809 14.9213 9.13871 14.7808 9.27934L8.42282 15.6393C8.3346 15.7276 8.22984 15.7977 8.11453 15.8455C7.99923 15.8932 7.87564 15.9178 7.75082 15.9178C7.62601 15.9178 7.50242 15.8932 7.38711 15.8455C7.27181 15.7977 7.16705 15.7276 7.07882 15.6393L4.22082 12.7793C4.08834 12.6372 4.01622 12.4491 4.01965 12.2548C4.02308 12.0605 4.10179 11.8751 4.2392 11.7377C4.37661 11.6003 4.562 11.5216 4.7563 11.5182C4.9506 11.5147 5.13865 11.5869 5.28082 11.7193L7.75082 14.1893L13.7208 8.21934C13.8614 8.07889 14.0521 8 14.2508 8C14.4496 8 14.6402 8.07889 14.7808 8.21934Z" fill="#0CAF91"/>
</svg>
