<svg width="32" height="32" viewBox="0 0 32 32" fill="none" xmlns="http://www.w3.org/2000/svg">
<path d="M8.66667 26.668H6.66667C5.19391 26.668 4 25.4741 4 24.0013V5.33464C4 3.86188 5.19391 2.66797 6.66667 2.66797H25.3333C26.8061 2.66797 28 3.86188 28 5.33464V24.0013C28 25.4741 26.8061 26.668 25.3333 26.668H23.3333M16 25.3346C18.2091 25.3346 20 23.5438 20 21.3346C20 19.1255 18.2091 17.3346 16 17.3346C13.7909 17.3346 12 19.1255 12 21.3346C12 23.5438 13.7909 25.3346 16 25.3346ZM16 25.3346L16.0286 25.3344L11.7716 29.5914L8.00033 25.8202L12.0262 21.7943M16 25.3346L20.2571 29.5914L24.0283 25.8202L20.0024 21.7943M12 8.0013H20M9.33333 12.668H22.6667" stroke="#635BFF" stroke-width="2" stroke-linecap="round" stroke-linejoin="round"/>
</svg>
