<svg width="34" height="34" viewBox="0 0 34 34" fill="none" xmlns="http://www.w3.org/2000/svg">
<path d="M13.7424 21.9199L12.6237 25.8354L11.505 21.9199C10.9174 19.8634 9.30987 18.2558 7.25332 17.6683L3.33789 16.5496L7.25333 15.4309C9.30987 14.8433 10.9174 13.2357 11.505 11.1792L12.6237 7.26375L13.7424 11.1792C14.33 13.2357 15.9375 14.8433 17.9941 15.4309L21.9095 16.5496L17.9941 17.6683C15.9375 18.2558 14.33 19.8634 13.7424 21.9199Z" stroke="white" stroke-width="2.06351" stroke-linecap="round" stroke-linejoin="round"/>
<path d="M25.3609 12.0298L25.0048 13.4543L24.6487 12.0298C24.2328 10.3663 22.9339 9.06749 21.2705 8.65162L19.846 8.2955L21.2705 7.93939C22.9339 7.52352 24.2328 6.22466 24.6487 4.56118L25.0048 3.13672L25.3609 4.56118C25.7768 6.22466 27.0756 7.52352 28.7391 7.93939L30.1636 8.2955L28.7391 8.65162C27.0756 9.06749 25.7768 10.3663 25.3609 12.0298Z" stroke="white" stroke-width="2.06351" stroke-linecap="round" stroke-linejoin="round"/>
<path d="M23.4836 28.3353L22.9413 29.9624L22.3989 28.3353C22.0908 27.4111 21.3656 26.6858 20.4413 26.3777L18.8142 25.8354L20.4413 25.293C21.3656 24.9849 22.0908 24.2597 22.3989 23.3354L22.9413 21.7083L23.4836 23.3354C23.7917 24.2597 24.517 24.9849 25.4412 25.293L27.0683 25.8354L25.4412 26.3777C24.517 26.6858 23.7917 27.4111 23.4836 28.3353Z" stroke="white" stroke-width="2.06351" stroke-linecap="round" stroke-linejoin="round"/>
</svg>
