<svg width="18" height="18" viewBox="0 0 18 18" fill="none" xmlns="http://www.w3.org/2000/svg">
<path d="M8.99935 0.667969C4.40768 0.667969 0.666016 4.40964 0.666016 9.0013C0.666016 13.593 4.40768 17.3346 8.99935 17.3346C13.591 17.3346 17.3327 13.593 17.3327 9.0013C17.3327 4.40964 13.591 0.667969 8.99935 0.667969ZM12.9827 7.08464L8.25768 11.8096C8.14102 11.9263 7.98268 11.993 7.81602 11.993C7.64935 11.993 7.49102 11.9263 7.37435 11.8096L5.01602 9.4513C4.77435 9.20964 4.77435 8.80964 5.01602 8.56797C5.25768 8.3263 5.65768 8.3263 5.89935 8.56797L7.81602 10.4846L12.0993 6.2013C12.341 5.95964 12.741 5.95964 12.9827 6.2013C13.2243 6.44297 13.2243 6.83464 12.9827 7.08464Z" fill="#3BA45F"/>
</svg>
