<svg width="22" height="19" viewBox="0 0 22 19" fill="none" xmlns="http://www.w3.org/2000/svg">
<path d="M16.7492 15.7191C16.9967 15.7396 17.2471 15.75 17.4998 15.75C18.5482 15.75 19.5546 15.5708 20.4903 15.2413C20.4966 15.1617 20.4998 15.0812 20.4998 15C20.4998 13.3431 19.1567 12 17.4998 12C16.8722 12 16.2896 12.1927 15.808 12.5222M16.7492 15.7191C16.7493 15.7294 16.7493 15.7397 16.7493 15.75C16.7493 15.975 16.7369 16.1971 16.7128 16.4156C14.956 17.4237 12.9199 18 10.7493 18C8.5786 18 6.54254 17.4237 4.78577 16.4156C4.76165 16.1971 4.74927 15.975 4.74927 15.75C4.74927 15.7397 4.74929 15.7295 4.74934 15.7192M16.7492 15.7191C16.7433 14.5426 16.3987 13.4461 15.808 12.5222M15.808 12.5222C14.7421 10.8552 12.8747 9.75 10.7493 9.75C8.62406 9.75 6.75692 10.8549 5.69096 12.5216M5.69096 12.5216C5.2095 12.1925 4.62723 12 4 12C2.34315 12 1 13.3431 1 15C1 15.0812 1.00323 15.1617 1.00956 15.2413C1.94519 15.5708 2.95167 15.75 4 15.75C4.25234 15.75 4.50226 15.7396 4.74934 15.7192M5.69096 12.5216C5.09997 13.4457 4.75525 14.5424 4.74934 15.7192M13.7493 3.75C13.7493 5.40685 12.4061 6.75 10.7493 6.75C9.09241 6.75 7.74927 5.40685 7.74927 3.75C7.74927 2.09315 9.09241 0.75 10.7493 0.75C12.4061 0.75 13.7493 2.09315 13.7493 3.75ZM19.7493 6.75C19.7493 7.99264 18.7419 9 17.4993 9C16.2566 9 15.2493 7.99264 15.2493 6.75C15.2493 5.50736 16.2566 4.5 17.4993 4.5C18.7419 4.5 19.7493 5.50736 19.7493 6.75ZM6.24927 6.75C6.24927 7.99264 5.24191 9 3.99927 9C2.75663 9 1.74927 7.99264 1.74927 6.75C1.74927 5.50736 2.75663 4.5 3.99927 4.5C5.24191 4.5 6.24927 5.50736 6.24927 6.75Z" stroke="white" stroke-width="1.5" stroke-linecap="round" stroke-linejoin="round"/>
</svg>
