<svg width="398" height="198" viewBox="0 0 398 198" fill="none" xmlns="http://www.w3.org/2000/svg">
<g filter="url(#filter0_d_814_14944)">
<rect x="27.3334" y="22.0039" width="343.528" height="143.667" rx="21.3333" fill="white" shape-rendering="crispEdges"/>
<path d="M58.403 74.9783V77.6719H46.755V74.9783H51.0211V62.7042C51.0211 62.2189 51.0356 61.719 51.0647 61.2045L48.0363 63.738C47.8615 63.8738 47.6868 63.9612 47.5121 64C47.3471 64.0292 47.1869 64.0292 47.0316 64C46.886 63.9709 46.755 63.9224 46.6385 63.8544C46.522 63.7768 46.4347 63.6943 46.3764 63.6069L45.2407 62.049L51.6617 56.589H54.6174V74.9783H58.403ZM74.5086 74.3231C74.8969 74.3231 75.2026 74.4347 75.4259 74.658C75.6589 74.8715 75.7753 75.1578 75.7753 75.517V77.6719H61.3318V76.478C61.3318 76.2353 61.3803 75.9829 61.4774 75.7208C61.5842 75.449 61.7492 75.2064 61.9725 74.9928L68.3643 68.5864C68.8982 68.0429 69.3738 67.5236 69.7912 67.0285C70.2183 66.5335 70.5726 66.0433 70.8541 65.558C71.1355 65.0726 71.3491 64.5824 71.4947 64.0874C71.65 63.5826 71.7277 63.0536 71.7277 62.5004C71.7277 61.9956 71.6549 61.554 71.5093 61.1754C71.3637 60.7871 71.155 60.462 70.8832 60.1999C70.6211 59.9378 70.3008 59.7437 69.9222 59.6175C69.5534 59.4816 69.136 59.4136 68.6701 59.4136C68.243 59.4136 67.845 59.4767 67.4761 59.6029C67.117 59.7194 66.7967 59.8893 66.5152 60.1125C66.2337 60.3261 65.9959 60.5784 65.8017 60.8696C65.6076 61.1608 65.462 61.4812 65.3649 61.8306C65.1999 62.2771 64.9864 62.5732 64.7243 62.7188C64.4622 62.8644 64.0837 62.8983 63.5886 62.8207L61.6958 62.4858C61.8414 61.4763 62.1229 60.593 62.5403 59.8359C62.9577 59.069 63.477 58.4333 64.0982 57.9285C64.7291 57.4141 65.4474 57.0306 66.2531 56.7783C67.0685 56.5162 67.9421 56.3852 68.8739 56.3852C69.8446 56.3852 70.7327 56.5308 71.5384 56.822C72.344 57.1034 73.0332 57.5063 73.6059 58.0304C74.1786 58.5546 74.6251 59.1855 74.9454 59.9232C75.2657 60.6609 75.4259 61.4812 75.4259 62.3839C75.4259 63.1604 75.3094 63.8787 75.0765 64.5388C74.8532 65.1988 74.5474 65.8297 74.1592 66.4316C73.7806 67.0334 73.3341 67.6158 72.8197 68.1788C72.3052 68.7417 71.7665 69.3144 71.2035 69.8968L66.4569 74.7453C66.9131 74.6094 67.3645 74.5075 67.811 74.4396C68.2672 74.3619 68.6992 74.3231 69.1069 74.3231H74.5086ZM78.8352 81.2391C78.6605 81.0935 78.5731 80.9139 78.5731 80.7004C78.5731 80.6227 78.5974 80.5353 78.6459 80.4383C78.7042 80.3412 78.7721 80.2538 78.8498 80.1762C78.9565 80.0597 79.0876 79.9141 79.2429 79.7394C79.3982 79.5744 79.5535 79.3802 79.7088 79.157C79.8641 78.9434 80.0049 78.7056 80.131 78.4436C80.2669 78.1912 80.3689 77.9194 80.4368 77.6282C80.1262 77.6282 79.8447 77.5748 79.5923 77.468C79.34 77.3516 79.1216 77.1962 78.9371 77.0021C78.7624 76.808 78.6217 76.5799 78.5149 76.3178C78.4178 76.0557 78.3693 75.7694 78.3693 75.4588C78.3693 75.187 78.4178 74.9346 78.5149 74.7016C78.6217 74.459 78.7673 74.2503 78.9517 74.0756C79.1361 73.8911 79.3594 73.7504 79.6214 73.6533C79.8835 73.5465 80.1699 73.4932 80.4805 73.4932C80.8493 73.4932 81.1697 73.5611 81.4414 73.697C81.7229 73.8232 81.951 74.0028 82.1258 74.2357C82.3102 74.459 82.4461 74.721 82.5334 75.022C82.6305 75.3132 82.679 75.6238 82.679 75.9538C82.679 76.4197 82.6062 76.9099 82.4606 77.4244C82.3248 77.9388 82.1209 78.4533 81.8491 78.9677C81.5773 79.4822 81.2376 79.9821 80.8299 80.4674C80.432 80.9527 79.9757 81.3992 79.4613 81.8069L78.8352 81.2391ZM100.104 67.145C100.104 68.9796 99.9047 70.5763 99.5068 71.9352C99.1185 73.2845 98.5749 74.4007 97.876 75.284C97.1869 76.1673 96.3667 76.8274 95.4154 77.2642C94.4739 77.6913 93.4547 77.9048 92.3578 77.9048C91.261 77.9048 90.2418 77.6913 89.3002 77.2642C88.3684 76.8274 87.5579 76.1673 86.8687 75.284C86.1795 74.4007 85.6408 73.2845 85.2525 71.9352C84.8643 70.5763 84.6701 68.9796 84.6701 67.145C84.6701 65.3007 84.8643 63.704 85.2525 62.3548C85.6408 61.0055 86.1795 59.8893 86.8687 59.006C87.5579 58.1226 88.3684 57.4674 89.3002 57.0404C90.2418 56.6036 91.261 56.3852 92.3578 56.3852C93.4547 56.3852 94.4739 56.6036 95.4154 57.0404C96.3667 57.4674 97.1869 58.1226 97.876 59.006C98.5749 59.8893 99.1185 61.0055 99.5068 62.3548C99.9047 63.704 100.104 65.3007 100.104 67.145ZM96.3909 67.145C96.3909 65.621 96.2793 64.3592 96.056 63.3594C95.8328 62.3596 95.5319 61.5637 95.1533 60.9716C94.7845 60.3794 94.3574 59.9669 93.872 59.734C93.3867 59.4913 92.882 59.37 92.3578 59.37C91.8434 59.37 91.3435 59.4913 90.8581 59.734C90.3825 59.9669 89.9603 60.3794 89.5914 60.9716C89.2226 61.5637 88.9265 62.3596 88.7032 63.3594C88.4897 64.3592 88.3829 65.621 88.3829 67.145C88.3829 68.6689 88.4897 69.9308 88.7032 70.9306C88.9265 71.9304 89.2226 72.7263 89.5914 73.3184C89.9603 73.9105 90.3825 74.3279 90.8581 74.5706C91.3435 74.8036 91.8434 74.92 92.3578 74.92C92.882 74.92 93.3867 74.8036 93.872 74.5706C94.3574 74.3279 94.7845 73.9105 95.1533 73.3184C95.5319 72.7263 95.8328 71.9304 96.056 70.9306C96.2793 69.9308 96.3909 68.6689 96.3909 67.145ZM116.996 67.145C116.996 68.9796 116.797 70.5763 116.399 71.9352C116.01 73.2845 115.467 74.4007 114.768 75.284C114.079 76.1673 113.259 76.8274 112.307 77.2642C111.366 77.6913 110.347 77.9048 109.25 77.9048C108.153 77.9048 107.134 77.6913 106.192 77.2642C105.26 76.8274 104.45 76.1673 103.761 75.284C103.071 74.4007 102.533 73.2845 102.144 71.9352C101.756 70.5763 101.562 68.9796 101.562 67.145C101.562 65.3007 101.756 63.704 102.144 62.3548C102.533 61.0055 103.071 59.8893 103.761 59.006C104.45 58.1226 105.26 57.4674 106.192 57.0404C107.134 56.6036 108.153 56.3852 109.25 56.3852C110.347 56.3852 111.366 56.6036 112.307 57.0404C113.259 57.4674 114.079 58.1226 114.768 59.006C115.467 59.8893 116.01 61.0055 116.399 62.3548C116.797 63.704 116.996 65.3007 116.996 67.145ZM113.283 67.145C113.283 65.621 113.171 64.3592 112.948 63.3594C112.725 62.3596 112.424 61.5637 112.045 60.9716C111.676 60.3794 111.249 59.9669 110.764 59.734C110.279 59.4913 109.774 59.37 109.25 59.37C108.735 59.37 108.235 59.4913 107.75 59.734C107.274 59.9669 106.852 60.3794 106.483 60.9716C106.114 61.5637 105.818 62.3596 105.595 63.3594C105.382 64.3592 105.275 65.621 105.275 67.145C105.275 68.6689 105.382 69.9308 105.595 70.9306C105.818 71.9304 106.114 72.7263 106.483 73.3184C106.852 73.9105 107.274 74.3279 107.75 74.5706C108.235 74.8036 108.735 74.92 109.25 74.92C109.774 74.92 110.279 74.8036 110.764 74.5706C111.249 74.3279 111.676 73.9105 112.045 73.3184C112.424 72.7263 112.725 71.9304 112.948 70.9306C113.171 69.9308 113.283 68.6689 113.283 67.145ZM133.887 67.145C133.887 68.9796 133.688 70.5763 133.291 71.9352C132.902 73.2845 132.359 74.4007 131.66 75.284C130.971 76.1673 130.15 76.8274 129.199 77.2642C128.258 77.6913 127.238 77.9048 126.142 77.9048C125.045 77.9048 124.026 77.6913 123.084 77.2642C122.152 76.8274 121.342 76.1673 120.652 75.284C119.963 74.4007 119.425 73.2845 119.036 71.9352C118.648 70.5763 118.454 68.9796 118.454 67.145C118.454 65.3007 118.648 63.704 119.036 62.3548C119.425 61.0055 119.963 59.8893 120.652 59.006C121.342 58.1226 122.152 57.4674 123.084 57.0404C124.026 56.6036 125.045 56.3852 126.142 56.3852C127.238 56.3852 128.258 56.6036 129.199 57.0404C130.15 57.4674 130.971 58.1226 131.66 59.006C132.359 59.8893 132.902 61.0055 133.291 62.3548C133.688 63.704 133.887 65.3007 133.887 67.145ZM130.175 67.145C130.175 65.621 130.063 64.3592 129.84 63.3594C129.617 62.3596 129.316 61.5637 128.937 60.9716C128.568 60.3794 128.141 59.9669 127.656 59.734C127.17 59.4913 126.666 59.37 126.142 59.37C125.627 59.37 125.127 59.4913 124.642 59.734C124.166 59.9669 123.744 60.3794 123.375 60.9716C123.006 61.5637 122.71 62.3596 122.487 63.3594C122.273 64.3592 122.167 65.621 122.167 67.145C122.167 68.6689 122.273 69.9308 122.487 70.9306C122.71 71.9304 123.006 72.7263 123.375 73.3184C123.744 73.9105 124.166 74.3279 124.642 74.5706C125.127 74.8036 125.627 74.92 126.142 74.92C126.666 74.92 127.17 74.8036 127.656 74.5706C128.141 74.3279 128.568 73.9105 128.937 73.3184C129.316 72.7263 129.617 71.9304 129.84 70.9306C130.063 69.9308 130.175 68.6689 130.175 67.145Z" fill="#3B3D53"/>
<path d="M49.3321 108.253V113.004H47.718V108.253L43.35 101.081H44.7644C44.9086 101.081 45.0223 101.117 45.1055 101.19C45.1887 101.256 45.2608 101.345 45.3219 101.456L48.0508 106.09C48.1507 106.284 48.2422 106.467 48.3254 106.639C48.4086 106.806 48.4807 106.975 48.5417 107.147C48.6027 106.975 48.672 106.806 48.7497 106.639C48.8273 106.467 48.9133 106.284 49.0076 106.09L51.7283 101.456C51.7782 101.361 51.8475 101.275 51.9363 101.198C52.025 101.12 52.1387 101.081 52.2774 101.081H53.7001L49.3321 108.253ZM56.6229 104.443C57.2386 104.443 57.7932 104.545 58.2869 104.75C58.7805 104.956 59.2021 105.247 59.5515 105.624C59.901 106.001 60.1672 106.459 60.3502 106.997C60.5388 107.529 60.6331 108.126 60.6331 108.786C60.6331 109.451 60.5388 110.05 60.3502 110.583C60.1672 111.115 59.901 111.57 59.5515 111.947C59.2021 112.324 58.7805 112.616 58.2869 112.821C57.7932 113.021 57.2386 113.12 56.6229 113.12C56.0017 113.12 55.4414 113.021 54.9422 112.821C54.4486 112.616 54.027 112.324 53.6776 111.947C53.3282 111.57 53.0592 111.115 52.8706 110.583C52.6875 110.05 52.596 109.451 52.596 108.786C52.596 108.126 52.6875 107.529 52.8706 106.997C53.0592 106.459 53.3282 106.001 53.6776 105.624C54.027 105.247 54.4486 104.956 54.9422 104.75C55.4414 104.545 56.0017 104.443 56.6229 104.443ZM56.6229 111.964C57.4549 111.964 58.0761 111.687 58.4866 111.132C58.897 110.572 59.1022 109.792 59.1022 108.794C59.1022 107.79 58.897 107.008 58.4866 106.448C58.0761 105.888 57.4549 105.607 56.6229 105.607C56.2013 105.607 55.8325 105.68 55.5163 105.824C55.2057 105.968 54.945 106.176 54.7342 106.448C54.529 106.72 54.3737 107.055 54.2683 107.454C54.1685 107.848 54.1186 108.295 54.1186 108.794C54.1186 109.792 54.3238 110.572 54.7342 111.132C55.1502 111.687 55.7798 111.964 56.6229 111.964ZM69.4421 104.576V113.004H68.5601C68.3494 113.004 68.2162 112.901 68.1608 112.696L68.0443 111.789C67.6782 112.194 67.2678 112.521 66.8129 112.771C66.3581 113.015 65.8367 113.137 65.2488 113.137C64.7884 113.137 64.3807 113.062 64.0257 112.912C63.6763 112.757 63.3823 112.541 63.1438 112.263C62.9053 111.986 62.725 111.651 62.603 111.257C62.4865 110.863 62.4283 110.427 62.4283 109.95V104.576H63.9093V109.95C63.9093 110.588 64.0535 111.082 64.3419 111.431C64.6359 111.781 65.0824 111.956 65.6814 111.956C66.1196 111.956 66.5273 111.853 66.9045 111.648C67.2872 111.437 67.6394 111.149 67.9611 110.782V104.576H69.4421ZM73.1963 106.265C73.4626 105.688 73.7898 105.239 74.1781 104.917C74.5663 104.59 75.0406 104.426 75.6008 104.426C75.7783 104.426 75.9475 104.445 76.1083 104.484C76.2747 104.523 76.4217 104.584 76.5493 104.667L76.4411 105.774C76.4078 105.912 76.3246 105.982 76.1915 105.982C76.1139 105.982 76.0002 105.965 75.8504 105.932C75.7006 105.899 75.5315 105.882 75.3429 105.882C75.0766 105.882 74.8381 105.921 74.6274 105.998C74.4221 106.076 74.2363 106.193 74.0699 106.348C73.9091 106.498 73.7621 106.686 73.629 106.914C73.5014 107.136 73.3849 107.391 73.2795 107.679V113.004H71.7902V104.576H72.6389C72.7997 104.576 72.9107 104.606 72.9717 104.667C73.0327 104.728 73.0743 104.834 73.0965 104.983L73.1963 106.265ZM86.6603 105.965C86.5937 106.087 86.4911 106.148 86.3525 106.148C86.2693 106.148 86.175 106.118 86.0696 106.057C85.9642 105.996 85.8338 105.929 85.6785 105.857C85.5288 105.779 85.3485 105.71 85.1377 105.649C84.927 105.582 84.6774 105.549 84.3889 105.549C84.1393 105.549 83.9147 105.582 83.715 105.649C83.5153 105.71 83.3434 105.796 83.1992 105.907C83.0605 106.018 82.9523 106.148 82.8747 106.298C82.8026 106.442 82.7665 106.6 82.7665 106.772C82.7665 106.989 82.8275 107.169 82.9496 107.313C83.0771 107.457 83.2435 107.582 83.4488 107.687C83.654 107.793 83.887 107.887 84.1477 107.97C84.4083 108.048 84.6746 108.134 84.9464 108.228C85.2237 108.317 85.4927 108.417 85.7534 108.528C86.0141 108.639 86.2471 108.777 86.4523 108.944C86.6575 109.11 86.8211 109.315 86.9432 109.559C87.0707 109.798 87.1345 110.086 87.1345 110.425C87.1345 110.813 87.0652 111.174 86.9265 111.506C86.7879 111.834 86.5826 112.119 86.3109 112.363C86.0391 112.602 85.7063 112.79 85.3125 112.929C84.9186 113.068 84.4638 113.137 83.948 113.137C83.36 113.137 82.8275 113.043 82.3505 112.854C81.8735 112.66 81.4686 112.413 81.1358 112.114L81.4853 111.548C81.5296 111.476 81.5823 111.42 81.6433 111.382C81.7043 111.343 81.782 111.323 81.8763 111.323C81.9761 111.323 82.0815 111.362 82.1925 111.44C82.3034 111.517 82.4365 111.603 82.5918 111.698C82.7527 111.792 82.9468 111.878 83.1742 111.956C83.4016 112.033 83.6845 112.072 84.0229 112.072C84.3113 112.072 84.5637 112.036 84.78 111.964C84.9963 111.886 85.1766 111.784 85.3208 111.656C85.465 111.528 85.5704 111.382 85.6369 111.215C85.709 111.049 85.7451 110.871 85.7451 110.683C85.7451 110.45 85.6813 110.258 85.5537 110.109C85.4317 109.953 85.2681 109.823 85.0629 109.718C84.8576 109.607 84.6219 109.512 84.3557 109.435C84.095 109.351 83.8259 109.265 83.5486 109.177C83.2768 109.088 83.0078 108.988 82.7416 108.877C82.4809 108.761 82.2479 108.616 82.0427 108.445C81.8375 108.273 81.6711 108.062 81.5435 107.812C81.4215 107.557 81.3605 107.249 81.3605 106.889C81.3605 106.567 81.427 106.259 81.5601 105.965C81.6933 105.666 81.8874 105.405 82.1425 105.183C82.3977 104.956 82.7111 104.775 83.0827 104.642C83.4543 104.509 83.8786 104.443 84.3557 104.443C84.9103 104.443 85.4067 104.531 85.8449 104.709C86.2887 104.881 86.6714 105.119 86.9931 105.424L86.6603 105.965ZM91.5378 113.137C90.8722 113.137 90.3591 112.951 89.9986 112.58C89.6436 112.208 89.4661 111.673 89.4661 110.974V105.815H88.451C88.3623 105.815 88.2874 105.79 88.2264 105.741C88.1654 105.685 88.1349 105.602 88.1349 105.491V104.9L89.516 104.726L89.8571 102.121C89.8738 102.038 89.9098 101.972 89.9653 101.922C90.0263 101.866 90.1039 101.838 90.1982 101.838H90.947V104.742H93.3848V105.815H90.947V110.874C90.947 111.229 91.033 111.492 91.205 111.664C91.3769 111.836 91.5988 111.922 91.8706 111.922C92.0259 111.922 92.159 111.903 92.2699 111.864C92.3864 111.82 92.4862 111.773 92.5694 111.723C92.6526 111.673 92.722 111.628 92.7774 111.59C92.8385 111.545 92.8911 111.523 92.9355 111.523C93.0132 111.523 93.0825 111.57 93.1435 111.664L93.5762 112.372C93.321 112.61 93.0132 112.799 92.6526 112.937C92.2921 113.07 91.9205 113.137 91.5378 113.137ZM99.4817 109.21C98.7994 109.232 98.217 109.288 97.7345 109.376C97.2575 109.46 96.8664 109.571 96.5614 109.709C96.2618 109.848 96.0427 110.011 95.9041 110.2C95.771 110.389 95.7044 110.599 95.7044 110.832C95.7044 111.054 95.7404 111.246 95.8126 111.406C95.8847 111.567 95.9817 111.7 96.1038 111.806C96.2313 111.906 96.3783 111.981 96.5447 112.03C96.7167 112.075 96.8997 112.097 97.0938 112.097C97.3545 112.097 97.593 112.072 97.8094 112.022C98.0257 111.967 98.2281 111.889 98.4167 111.789C98.6108 111.689 98.7939 111.57 98.9658 111.431C99.1433 111.293 99.3153 111.135 99.4817 110.957V109.21ZM94.6977 105.766C95.1636 105.316 95.6656 104.981 96.2036 104.759C96.7416 104.537 97.3379 104.426 97.9924 104.426C98.4639 104.426 98.8826 104.504 99.2487 104.659C99.6148 104.814 99.9226 105.031 100.172 105.308C100.422 105.585 100.61 105.921 100.738 106.315C100.866 106.708 100.929 107.141 100.929 107.613V113.004H100.272C100.128 113.004 100.017 112.982 99.9393 112.937C99.8616 112.887 99.8006 112.793 99.7562 112.654L99.5898 111.856C99.368 112.061 99.1516 112.244 98.9409 112.405C98.7301 112.56 98.5082 112.693 98.2753 112.804C98.0423 112.91 97.7927 112.99 97.5265 113.046C97.2658 113.107 96.9746 113.137 96.6529 113.137C96.3256 113.137 96.0178 113.093 95.7294 113.004C95.4409 112.91 95.1886 112.771 94.9722 112.588C94.7615 112.405 94.5923 112.175 94.4647 111.897C94.3427 111.614 94.2817 111.282 94.2817 110.899C94.2817 110.566 94.3732 110.247 94.5562 109.942C94.7393 109.632 95.036 109.357 95.4465 109.118C95.8569 108.88 96.3922 108.686 97.0522 108.536C97.7123 108.381 98.5221 108.292 99.4817 108.27V107.613C99.4817 106.958 99.3402 106.464 99.0574 106.132C98.7745 105.793 98.3612 105.624 97.8177 105.624C97.4516 105.624 97.1438 105.671 96.8942 105.766C96.6501 105.854 96.4366 105.957 96.2535 106.073C96.076 106.184 95.9207 106.287 95.7876 106.381C95.66 106.47 95.5324 106.514 95.4049 106.514C95.305 106.514 95.2191 106.489 95.147 106.439C95.0748 106.384 95.0138 106.317 94.9639 106.24L94.6977 105.766ZM105.659 113.137C104.993 113.137 104.48 112.951 104.12 112.58C103.765 112.208 103.587 111.673 103.587 110.974V105.815H102.572C102.484 105.815 102.409 105.79 102.348 105.741C102.287 105.685 102.256 105.602 102.256 105.491V104.9L103.637 104.726L103.978 102.121C103.995 102.038 104.031 101.972 104.087 101.922C104.148 101.866 104.225 101.838 104.319 101.838H105.068V104.742H107.506V105.815H105.068V110.874C105.068 111.229 105.154 111.492 105.326 111.664C105.498 111.836 105.72 111.922 105.992 111.922C106.147 111.922 106.28 111.903 106.391 111.864C106.508 111.82 106.607 111.773 106.691 111.723C106.774 111.673 106.843 111.628 106.899 111.59C106.96 111.545 107.012 111.523 107.057 111.523C107.134 111.523 107.204 111.57 107.265 111.664L107.697 112.372C107.442 112.61 107.134 112.799 106.774 112.937C106.413 113.07 106.042 113.137 105.659 113.137ZM121.114 113.004H119.633V105.815H115.29V110.874C115.29 111.229 115.376 111.492 115.547 111.664C115.719 111.836 115.941 111.922 116.213 111.922C116.368 111.922 116.501 111.903 116.612 111.864C116.729 111.82 116.829 111.773 116.912 111.723C116.995 111.673 117.064 111.628 117.12 111.59C117.181 111.545 117.234 111.523 117.278 111.523C117.356 111.523 117.425 111.57 117.486 111.664L117.919 112.372C117.664 112.61 117.356 112.799 116.995 112.937C116.635 113.07 116.263 113.137 115.88 113.137C115.215 113.137 114.702 112.951 114.341 112.58C113.986 112.208 113.809 111.673 113.809 110.974V105.815H112.794C112.705 105.815 112.63 105.79 112.569 105.741C112.508 105.685 112.477 105.602 112.477 105.491V104.9L113.859 104.717L114.2 102.121C114.216 102.038 114.252 101.972 114.308 101.922C114.369 101.866 114.446 101.838 114.541 101.838H115.29V104.742H121.114V113.004ZM121.48 101.872C121.48 102.016 121.449 102.152 121.388 102.279C121.333 102.401 121.255 102.51 121.155 102.604C121.061 102.698 120.95 102.773 120.822 102.829C120.695 102.884 120.559 102.912 120.415 102.912C120.27 102.912 120.135 102.884 120.007 102.829C119.885 102.773 119.777 102.698 119.683 102.604C119.588 102.51 119.513 102.401 119.458 102.279C119.402 102.152 119.375 102.016 119.375 101.872C119.375 101.728 119.402 101.592 119.458 101.464C119.513 101.331 119.588 101.217 119.683 101.123C119.777 101.023 119.885 100.945 120.007 100.89C120.135 100.835 120.27 100.807 120.415 100.807C120.559 100.807 120.695 100.835 120.822 100.89C120.95 100.945 121.061 101.023 121.155 101.123C121.255 101.217 121.333 101.331 121.388 101.464C121.449 101.592 121.48 101.728 121.48 101.872ZM126.134 113.137C125.468 113.137 124.955 112.951 124.595 112.58C124.24 112.208 124.062 111.673 124.062 110.974V105.815H123.047C122.959 105.815 122.884 105.79 122.823 105.741C122.762 105.685 122.731 105.602 122.731 105.491V104.9L124.112 104.726L124.453 102.121C124.47 102.038 124.506 101.972 124.562 101.922C124.623 101.866 124.7 101.838 124.794 101.838H125.543V104.742H127.981V105.815H125.543V110.874C125.543 111.229 125.629 111.492 125.801 111.664C125.973 111.836 126.195 111.922 126.467 111.922C126.622 111.922 126.755 111.903 126.866 111.864C126.983 111.82 127.082 111.773 127.166 111.723C127.249 111.673 127.318 111.628 127.374 111.59C127.435 111.545 127.487 111.523 127.532 111.523C127.609 111.523 127.679 111.57 127.74 111.664L128.172 112.372C127.917 112.61 127.609 112.799 127.249 112.937C126.888 113.07 126.517 113.137 126.134 113.137ZM131.041 100.749V113.004H129.56V100.749H131.041ZM139.084 107.87C139.084 107.527 139.034 107.213 138.934 106.93C138.84 106.642 138.698 106.395 138.51 106.19C138.327 105.979 138.102 105.818 137.836 105.707C137.569 105.591 137.267 105.533 136.929 105.533C136.219 105.533 135.656 105.741 135.24 106.157C134.829 106.567 134.574 107.138 134.474 107.87H139.084ZM140.282 111.822C140.099 112.044 139.88 112.238 139.625 112.405C139.369 112.566 139.095 112.699 138.801 112.804C138.512 112.91 138.213 112.987 137.902 113.037C137.592 113.093 137.284 113.12 136.979 113.12C136.396 113.12 135.858 113.023 135.365 112.829C134.877 112.63 134.452 112.341 134.092 111.964C133.737 111.581 133.459 111.11 133.26 110.55C133.06 109.989 132.96 109.346 132.96 108.619C132.96 108.031 133.049 107.482 133.226 106.972C133.409 106.462 133.67 106.021 134.009 105.649C134.347 105.272 134.76 104.978 135.248 104.767C135.736 104.551 136.285 104.443 136.896 104.443C137.4 104.443 137.866 104.529 138.293 104.701C138.726 104.867 139.098 105.111 139.408 105.433C139.724 105.749 139.971 106.143 140.149 106.614C140.326 107.08 140.415 107.613 140.415 108.212C140.415 108.445 140.39 108.6 140.34 108.678C140.29 108.755 140.196 108.794 140.057 108.794H134.425C134.441 109.326 134.513 109.79 134.641 110.183C134.774 110.577 134.957 110.907 135.19 111.174C135.423 111.434 135.7 111.631 136.022 111.764C136.344 111.892 136.704 111.956 137.104 111.956C137.475 111.956 137.794 111.914 138.06 111.831C138.332 111.742 138.565 111.648 138.759 111.548C138.953 111.448 139.114 111.357 139.242 111.273C139.375 111.185 139.489 111.14 139.583 111.14C139.705 111.14 139.799 111.187 139.866 111.282L140.282 111.822ZM147.981 105.699C148.341 105.316 148.741 105.011 149.179 104.784C149.617 104.556 150.122 104.443 150.693 104.443C151.153 104.443 151.558 104.52 151.908 104.676C152.263 104.825 152.557 105.042 152.79 105.325C153.028 105.602 153.209 105.937 153.331 106.331C153.453 106.725 153.514 107.16 153.514 107.638V113.004H152.024V107.638C152.024 107 151.877 106.506 151.583 106.157C151.295 105.802 150.854 105.624 150.26 105.624C149.822 105.624 149.412 105.729 149.029 105.94C148.652 106.151 148.302 106.437 147.981 106.797V113.004H146.491V100.749H147.981V105.699ZM161.411 107.87C161.411 107.527 161.361 107.213 161.261 106.93C161.167 106.642 161.026 106.395 160.837 106.19C160.654 105.979 160.429 105.818 160.163 105.707C159.897 105.591 159.595 105.533 159.256 105.533C158.546 105.533 157.983 105.741 157.567 106.157C157.157 106.567 156.902 107.138 156.802 107.87H161.411ZM162.609 111.822C162.426 112.044 162.207 112.238 161.952 112.405C161.697 112.566 161.422 112.699 161.128 112.804C160.84 112.91 160.54 112.987 160.23 113.037C159.919 113.093 159.611 113.12 159.306 113.12C158.724 113.12 158.186 113.023 157.692 112.829C157.204 112.63 156.78 112.341 156.419 111.964C156.064 111.581 155.787 111.11 155.587 110.55C155.388 109.989 155.288 109.346 155.288 108.619C155.288 108.031 155.376 107.482 155.554 106.972C155.737 106.462 155.998 106.021 156.336 105.649C156.674 105.272 157.088 104.978 157.576 104.767C158.064 104.551 158.613 104.443 159.223 104.443C159.728 104.443 160.194 104.529 160.621 104.701C161.053 104.867 161.425 105.111 161.736 105.433C162.052 105.749 162.299 106.143 162.476 106.614C162.654 107.08 162.742 107.613 162.742 108.212C162.742 108.445 162.717 108.6 162.668 108.678C162.618 108.755 162.523 108.794 162.385 108.794H156.752C156.769 109.326 156.841 109.79 156.968 110.183C157.101 110.577 157.284 110.907 157.517 111.174C157.75 111.434 158.028 111.631 158.349 111.764C158.671 111.892 159.032 111.956 159.431 111.956C159.803 111.956 160.122 111.914 160.388 111.831C160.66 111.742 160.893 111.648 161.087 111.548C161.281 111.448 161.442 111.357 161.569 111.273C161.702 111.185 161.816 111.14 161.91 111.14C162.032 111.14 162.127 111.187 162.193 111.282L162.609 111.822ZM165.968 106.265C166.234 105.688 166.561 105.239 166.949 104.917C167.338 104.59 167.812 104.426 168.372 104.426C168.55 104.426 168.719 104.445 168.88 104.484C169.046 104.523 169.193 104.584 169.321 104.667L169.212 105.774C169.179 105.912 169.096 105.982 168.963 105.982C168.885 105.982 168.771 105.965 168.622 105.932C168.472 105.899 168.303 105.882 168.114 105.882C167.848 105.882 167.609 105.921 167.399 105.998C167.193 106.076 167.008 106.193 166.841 106.348C166.68 106.498 166.533 106.686 166.4 106.914C166.273 107.136 166.156 107.391 166.051 107.679V113.004H164.561V104.576H165.41C165.571 104.576 165.682 104.606 165.743 104.667C165.804 104.728 165.846 104.834 165.868 104.983L165.968 106.265ZM175.922 107.87C175.922 107.527 175.873 107.213 175.773 106.93C175.678 106.642 175.537 106.395 175.348 106.19C175.165 105.979 174.941 105.818 174.674 105.707C174.408 105.591 174.106 105.533 173.768 105.533C173.058 105.533 172.495 105.741 172.079 106.157C171.668 106.567 171.413 107.138 171.313 107.87H175.922ZM177.121 111.822C176.937 112.044 176.718 112.238 176.463 112.405C176.208 112.566 175.934 112.699 175.64 112.804C175.351 112.91 175.052 112.987 174.741 113.037C174.43 113.093 174.123 113.12 173.817 113.12C173.235 113.12 172.697 113.023 172.203 112.829C171.715 112.63 171.291 112.341 170.93 111.964C170.575 111.581 170.298 111.11 170.098 110.55C169.899 109.989 169.799 109.346 169.799 108.619C169.799 108.031 169.888 107.482 170.065 106.972C170.248 106.462 170.509 106.021 170.847 105.649C171.186 105.272 171.599 104.978 172.087 104.767C172.575 104.551 173.124 104.443 173.734 104.443C174.239 104.443 174.705 104.529 175.132 104.701C175.565 104.867 175.936 105.111 176.247 105.433C176.563 105.749 176.81 106.143 176.987 106.614C177.165 107.08 177.254 107.613 177.254 108.212C177.254 108.445 177.229 108.6 177.179 108.678C177.129 108.755 177.035 108.794 176.896 108.794H171.263C171.28 109.326 171.352 109.79 171.48 110.183C171.613 110.577 171.796 110.907 172.029 111.174C172.262 111.434 172.539 111.631 172.861 111.764C173.182 111.892 173.543 111.956 173.942 111.956C174.314 111.956 174.633 111.914 174.899 111.831C175.171 111.742 175.404 111.648 175.598 111.548C175.792 111.448 175.953 111.357 176.081 111.273C176.214 111.185 176.327 111.14 176.422 111.14C176.544 111.14 176.638 111.187 176.705 111.282L177.121 111.822Z" fill="#161A41" fill-opacity="0.53"/>
<path d="M48.0822 126.632H50.7847V132.659L52.1427 132.679V126.632H54.8385L51.4603 123.254L48.0822 126.632Z" fill="#7FCC6C"/>
<path d="M60.5593 125.241C60.6529 124.592 60.8339 124.025 61.1022 123.538C61.3705 123.045 61.7044 122.636 62.1037 122.312C62.5093 121.981 62.9711 121.735 63.489 121.572C64.0132 121.404 64.5748 121.32 65.1738 121.32C65.7978 121.32 66.3594 121.41 66.8586 121.591C67.3641 121.766 67.7946 122.012 68.1503 122.33C68.506 122.642 68.7774 123.011 68.9646 123.435C69.1581 123.859 69.2548 124.318 69.2548 124.811C69.2548 125.241 69.2049 125.622 69.105 125.953C69.0114 126.277 68.8741 126.561 68.6932 126.805C68.5122 127.048 68.2876 127.254 68.0193 127.422C67.7509 127.591 67.4483 127.731 67.1113 127.844C67.9225 128.099 68.5278 128.489 68.9272 129.014C69.3265 129.538 69.5262 130.196 69.5262 130.988C69.5262 131.662 69.4014 132.258 69.1518 132.776C68.9022 133.294 68.5653 133.731 68.1409 134.087C67.7166 134.436 67.2237 134.701 66.6621 134.882C66.1067 135.063 65.517 135.154 64.893 135.154C64.2129 135.154 63.6201 135.076 63.1146 134.92C62.6092 134.764 62.1693 134.533 61.7949 134.227C61.4205 133.921 61.1022 133.547 60.8401 133.104C60.5781 132.661 60.3534 132.149 60.1662 131.569L61.1865 131.148C61.4548 131.035 61.7044 131.007 61.9353 131.063C62.1724 131.113 62.344 131.238 62.4501 131.438C62.5624 131.656 62.6841 131.871 62.8151 132.084C62.9524 132.296 63.1146 132.486 63.3018 132.655C63.489 132.817 63.7074 132.951 63.957 133.057C64.2129 133.157 64.5155 133.207 64.8649 133.207C65.2581 133.207 65.6013 133.144 65.8945 133.02C66.1878 132.889 66.4312 132.72 66.6246 132.514C66.8243 132.308 66.9709 132.08 67.0645 131.831C67.1644 131.575 67.2143 131.319 67.2143 131.063C67.2143 130.739 67.18 130.446 67.1113 130.184C67.0427 129.915 66.8992 129.687 66.6808 129.5C66.4624 129.313 66.1473 129.166 65.7354 129.06C65.3298 128.954 64.7838 128.901 64.0974 128.901V127.254C64.6653 127.248 65.1364 127.195 65.5108 127.095C65.8852 126.995 66.1816 126.858 66.4 126.683C66.6246 126.502 66.7806 126.287 66.868 126.037C66.9553 125.787 66.999 125.513 66.999 125.213C66.999 124.577 66.8212 124.093 66.4655 123.763C66.1098 123.432 65.6356 123.266 65.0428 123.266C64.7682 123.266 64.5155 123.307 64.2846 123.388C64.0537 123.463 63.8447 123.572 63.6575 123.716C63.4765 123.853 63.3237 124.015 63.1989 124.202C63.0741 124.39 62.9805 124.596 62.9181 124.82C62.812 125.107 62.6716 125.298 62.4969 125.391C62.3284 125.485 62.0881 125.507 61.7761 125.457L60.5593 125.241ZM77.3807 124.745C77.3807 125.257 77.2934 125.719 77.1186 126.131C76.9502 126.542 76.7224 126.895 76.4354 127.188C76.1483 127.475 75.8145 127.697 75.4338 127.853C75.0532 128.009 74.657 128.087 74.2451 128.087C73.7958 128.087 73.3809 128.009 73.0002 127.853C72.6196 127.697 72.2889 127.475 72.0081 127.188C71.7335 126.895 71.5182 126.542 71.3622 126.131C71.2062 125.719 71.1282 125.257 71.1282 124.745C71.1282 124.221 71.2062 123.747 71.3622 123.323C71.5182 122.898 71.7335 122.54 72.0081 122.246C72.2889 121.953 72.6196 121.728 73.0002 121.572C73.3809 121.41 73.7958 121.329 74.2451 121.329C74.6944 121.329 75.1094 121.41 75.49 121.572C75.8769 121.728 76.2107 121.953 76.4915 122.246C76.7723 122.54 76.9907 122.898 77.1467 123.323C77.3027 123.747 77.3807 124.221 77.3807 124.745ZM75.6023 124.745C75.6023 124.383 75.5649 124.081 75.49 123.837C75.4214 123.594 75.3246 123.398 75.1998 123.248C75.0813 123.098 74.9378 122.992 74.7693 122.93C74.607 122.861 74.4323 122.827 74.2451 122.827C74.0579 122.827 73.8832 122.861 73.721 122.93C73.5587 122.992 73.4183 123.098 73.2998 123.248C73.1874 123.398 73.097 123.594 73.0283 123.837C72.9597 124.081 72.9254 124.383 72.9254 124.745C72.9254 125.095 72.9597 125.388 73.0283 125.625C73.097 125.856 73.1874 126.043 73.2998 126.187C73.4183 126.33 73.5587 126.433 73.721 126.496C73.8832 126.558 74.0579 126.589 74.2451 126.589C74.4323 126.589 74.607 126.558 74.7693 126.496C74.9378 126.433 75.0813 126.33 75.1998 126.187C75.3246 126.043 75.4214 125.856 75.49 125.625C75.5649 125.388 75.6023 125.095 75.6023 124.745ZM81.8829 121.834C81.964 121.741 82.0576 121.657 82.1637 121.582C82.276 121.507 82.432 121.469 82.6317 121.469H84.3165L74.2638 134.658C74.1827 134.757 74.086 134.842 73.9737 134.91C73.8614 134.973 73.7241 135.004 73.5618 135.004H71.8396L81.8829 121.834ZM85.0278 131.822C85.0278 132.333 84.9405 132.795 84.7658 133.207C84.5973 133.619 84.3695 133.971 84.0825 134.264C83.7954 134.552 83.4616 134.776 83.081 134.938C82.7003 135.094 82.3041 135.172 81.8922 135.172C81.443 135.172 81.028 135.094 80.6474 134.938C80.2667 134.776 79.936 134.552 79.6552 134.264C79.3806 133.971 79.1654 133.619 79.0094 133.207C78.8534 132.795 78.7754 132.333 78.7754 131.822C78.7754 131.297 78.8534 130.823 79.0094 130.399C79.1654 129.974 79.3806 129.616 79.6552 129.322C79.936 129.029 80.2667 128.804 80.6474 128.648C81.028 128.486 81.443 128.405 81.8922 128.405C82.3415 128.405 82.7565 128.486 83.1371 128.648C83.524 128.804 83.8547 129.029 84.1293 129.322C84.4101 129.616 84.6285 129.974 84.7845 130.399C84.9467 130.823 85.0278 131.297 85.0278 131.822ZM83.2401 131.822C83.2401 131.46 83.2058 131.157 83.1371 130.914C83.0685 130.67 82.9718 130.474 82.847 130.324C82.7284 130.174 82.5849 130.068 82.4164 130.006C82.2542 129.937 82.0794 129.903 81.8922 129.903C81.705 129.903 81.5303 129.937 81.3681 130.006C81.2058 130.068 81.0654 130.174 80.9469 130.324C80.8283 130.474 80.7347 130.67 80.6661 130.914C80.6037 131.157 80.5725 131.46 80.5725 131.822C80.5725 132.171 80.6037 132.464 80.6661 132.701C80.7347 132.938 80.8283 133.129 80.9469 133.272C81.0654 133.416 81.2058 133.519 81.3681 133.581C81.5303 133.644 81.705 133.675 81.8922 133.675C82.0794 133.675 82.2542 133.644 82.4164 133.581C82.5849 133.519 82.7284 133.416 82.847 133.272C82.9718 133.129 83.0685 132.938 83.1371 132.701C83.2058 132.464 83.2401 132.171 83.2401 131.822Z" fill="#7FCC6C"/>
<rect x="230.061" y="102.602" width="13.52" height="36.4" rx="2.08" fill="#E3DCFB"/>
<rect x="267.501" y="92.1992" width="12.48" height="46.8" rx="2.08" fill="#E3DCFB"/>
<rect x="323.661" y="120.285" width="12.48" height="18.72" rx="2.08" fill="#E3DCFB"/>
<rect x="248.781" y="116.121" width="12.48" height="22.88" rx="2.08" fill="#E3DCFB"/>
<rect x="304.941" y="95.3203" width="12.48" height="43.68" rx="2.08" fill="#E3DCFB"/>
<rect x="286.221" y="66.1992" width="12.48" height="72.8" rx="2.08" fill="#7453EC"/>
<line x1="217.573" y1="71.1441" x2="289.87" y2="71.1441" stroke="#6976EB" stroke-width="1.04" stroke-dasharray="4.16 4.16"/>
<ellipse cx="292.461" cy="72.1457" rx="12.48" ry="14.2629" fill="#6976EB" fill-opacity="0.29"/>
<rect x="341.341" y="127.566" width="13.52" height="11.44" rx="2.08" fill="#E3DCFB"/>
</g>
<defs>
<filter id="filter0_d_814_14944" x="0.666706" y="0.670572" width="396.861" height="197.001" filterUnits="userSpaceOnUse" color-interpolation-filters="sRGB">
<feFlood flood-opacity="0" result="BackgroundImageFix"/>
<feColorMatrix in="SourceAlpha" type="matrix" values="0 0 0 0 0 0 0 0 0 0 0 0 0 0 0 0 0 0 127 0" result="hardAlpha"/>
<feOffset dy="5.33333"/>
<feGaussianBlur stdDeviation="13.3333"/>
<feComposite in2="hardAlpha" operator="out"/>
<feColorMatrix type="matrix" values="0 0 0 0 0 0 0 0 0 0 0 0 0 0 0 0 0 0 0.25 0"/>
<feBlend mode="normal" in2="BackgroundImageFix" result="effect1_dropShadow_814_14944"/>
<feBlend mode="normal" in="SourceGraphic" in2="effect1_dropShadow_814_14944" result="shape"/>
</filter>
</defs>
</svg>
